<svg xmlns="http://www.w3.org/2000/svg" width="400" height="125">
  <path d="M8.957 66.205v-.91c0-.027.03-.133.09-.32.053-.193.12-.393.2-.6.08-.207.15-.397.21-.57.053-.18.08-.297.08-.35.027-.113.06-.38.1-.8.04-.427.087-.887.14-1.38.06-.487.11-.97.15-1.45.04-.48.061-.83.061-1.05v-7.54c0-.167.02-.387.06-.66.04-.273.11-.54.21-.8a2.87 2.87 0 0 1 .36-.7c.153-.207.34-.31.56-.31.493 0 .87.123 1.131.37.26.247.463.543.61.89.153.34.257.713.31 1.12.053.413.107.783.16 1.11a18.091 18.091 0 0 0 2.241 5.78 21.458 21.458 0 0 0 4.082 4.93c.133.107.317.257.55.45.233.187.461.377.681.57l.82.74c.14.08.387.183.74.31l1.151.39c.407.133.79.257 1.15.37.354.107.611.173.771.2.087 0 .3.007.64.02.34.013.703.027 1.091.04.38.013.733.027 1.06.04.333.013.54.033.62.06.053 0 .224.023.511.07.287.04.443.06.47.06h.54c.353 0 .687-.077 1.001-.23a5.093 5.093 0 0 1 1.05-.35 6.94 6.94 0 0 1 1.101-.22c.36-.04.703-.17 1.03-.39.467-.327.924-.633 1.371-.92.453-.293.87-.603 1.25-.93a6.475 6.475 0 0 0 1.051-1.13c.313-.42.58-.917.8-1.49 0-.027.013-.137.04-.33a7.91 7.91 0 0 0 .06-.6c.013-.2.033-.39.06-.57.033-.18.05-.297.05-.35a27.4 27.4 0 0 0 .18-.37c.093-.187.204-.383.331-.59.12-.207.23-.4.33-.58.093-.173.14-.273.14-.3 0-.06.013-.28.04-.66.027-.38.04-.68.04-.9 0-.96-.15-1.877-.45-2.75a10.442 10.442 0 0 0-1.211-2.44 10.701 10.701 0 0 0-1.801-2.05c-.7-.613-1.46-1.14-2.281-1.58-.053-.053-.26-.1-.62-.14-.353-.047-.557-.097-.61-.15a8.726 8.726 0 0 1-.601-.26c-.313-.153-.647-.32-1-.5-.353-.173-.691-.337-1.011-.49-.313-.147-.51-.25-.59-.31 0-.027-.09-.067-.27-.12l-.59-.18-.641-.21c-.2-.067-.317-.1-.35-.1a2.26 2.26 0 0 0-.3-.19 5.88 5.88 0 0 0-.58-.26c-.2-.087-.39-.163-.571-.23-.18-.067-.31-.1-.39-.1a5.448 5.448 0 0 0-.76-.12 8.916 8.916 0 0 0-.51-.04c-1.534-.36-3.155-.873-4.863-1.54-1.713-.673-3.211-1.42-4.492-2.24-.06-.027-.15-.107-.27-.24-.127-.14-.257-.287-.39-.44-.14-.147-.27-.29-.39-.43-.12-.133-.197-.2-.23-.2-.053 0-.173-.04-.36-.12-.194-.087-.291-.143-.291-.17-.053 0-.11-.047-.17-.14-.053-.1-.107-.15-.16-.15a306.921 306.921 0 0 0-.62-1.1 27.08 27.08 0 0 0-.39-.7c-.12-.22-.193-.357-.22-.41a46.358 46.358 0 0 0-1.401-2.13 7.584 7.584 0 0 1-1.06-2.26 25.422 25.422 0 0 1-.531-2.75c-.14-.953-.21-1.853-.21-2.7 0-.633.013-1.303.04-2.01a9.71 9.71 0 0 1 .25-1.93c.053-.053.19-.21.41-.47.221-.26.331-.433.331-.52.053-.08.12-.193.2-.34.08-.153.17-.313.27-.48.093-.16.18-.303.26-.43.087-.12.143-.193.17-.22a19.229 19.229 0 0 1 3.942-4.92c1.554-1.4 3.385-2.413 5.493-3.04.053 0 .203-.033.45-.1s.41-.1.49-.1c.113-.06.327-.137.64-.23s.497-.14.551-.14c.033 0 .17-.007.41-.02.247-.013.53-.027.85-.04.313-.02.633-.037.961-.05.327-.013.587-.02.78-.02.107 0 .283.013.53.04.247.033.513.057.801.07.287.013.56.033.82.06.26.027.46.04.6.04.187.053.41.113.671.18.26.073.417.11.47.11.467.027.87.047 1.21.06.347.013.698.053 1.051.12s.743.177 1.17.33c.428.147.968.373 1.621.68.687.327 1.324.64 1.911.94.587.3.99.503 1.211.61.053.06.217.177.49.35.273.18.41.31.41.39h.57c.3 0 .561-.067.781-.2.22-.14.42-.307.6-.5.173-.187.343-.397.51-.63.167-.233.343-.433.53-.6.06-.08.178-.23.351-.45.18-.213.387-.443.62-.69.233-.247.45-.473.65-.68l.43-.43h.371c.3 0 .52.137.66.41.133.273.217.56.25.86 0 .027.013.17.04.43.027.26.053.553.08.88.027.327.053.663.08 1.01.027.34.053.607.08.8v.37c-.08.573-.16 1.38-.24 2.42a604.67 604.67 0 0 1-.27 3.11l-.25 2.77c-.067.807-.113 1.28-.14 1.42a5.432 5.432 0 0 1-.591 1.95c-.32.587-.89.88-1.71.88-.16 0-.414-.013-.761-.04-.34-.027-.577-.137-.71-.33-.333-.413-.6-.85-.8-1.31a92.515 92.515 0 0 1-.601-1.38c-.187-.453-.39-.91-.61-1.37a6.765 6.765 0 0 0-.82-1.32c-.388-.46-.778-.95-1.171-1.47-.4-.52-.817-1.033-1.251-1.54-.44-.507-.893-.993-1.36-1.46-.46-.46-.951-.87-1.471-1.23a1.06 1.06 0 0 1-.27-.06 6.846 6.846 0 0 1-.78-.31.893.893 0 0 1-.22-.12c-.06-.027-.158-.1-.291-.22-.14-.127-.297-.263-.47-.41a4.852 4.852 0 0 0-.52-.39c-.16-.113-.283-.17-.37-.17 0-.027-.067-.06-.2-.1a3.738 3.738 0 0 0-.491-.1 31.804 31.804 0 0 1-.6-.09 5.098 5.098 0 0 1-.47-.08 6.708 6.708 0 0 0-.63-.08c-.294-.027-.591-.06-.891-.1-.3-.04-.58-.073-.84-.1a5.284 5.284 0 0 1-.55-.09h-.451c-1.613 0-2.961.323-4.042.97-1.08.64-2.044 1.577-2.891 2.81-.36.493-.677.897-.95 1.21a6.493 6.493 0 0 0-.671.9c-.18.287-.31.613-.39.98-.087.373-.13.86-.13 1.46v.43c0 .153.013.297.04.43.033.167.063.33.09.49.027.14.12.387.28.74.167.353.36.73.581 1.13.22.393.43.777.63 1.15.207.367.38.633.52.8 0 .053.073.163.22.33.153.16.323.343.51.55.194.207.381.397.561.57.173.18.303.31.39.39a14.664 14.664 0 0 0 3.592 2.4c1.3.62 2.628 1.14 3.981 1.56 1.354.427 2.722.81 4.102 1.15a42.06 42.06 0 0 1 4.042 1.21c.22.353.521.55.901.59.38.047.763.163 1.15.35.22.167.507.347.861.54.353.187.717.39 1.09.61.367.22.733.447 1.101.68.373.233.683.473.93.72.08.053.187.147.32.28.14.14.293.283.46.43l.451.43c.133.14.24.25.32.33 0 .087.097.253.29.5.193.24.303.39.33.45a47.499 47.499 0 0 0 1.951 2.07 6.818 6.818 0 0 1 1.541 2.4c.053.22.127.48.22.78.1.3.203.6.31.9.107.327.243.683.41 1.07.107.573.173 1.127.2 1.66.033.533.05 1.073.05 1.62 0 .707-.03 1.41-.09 2.11-.053.693-.107 1.397-.16 2.11a188.638 188.638 0 0 1-1.35 3.2c-.221.493-.454.993-.701 1.5-.247.507-.52 1.033-.82 1.58a5.852 5.852 0 0 0-.31.18c-.147.093-.25.17-.31.23-.434.38-.814.733-1.141 1.06a63.48 63.48 0 0 0-.97.99 18.19 18.19 0 0 1-1.021.98c-.373.327-.82.67-1.341 1.03-.873.6-1.843 1.097-2.911 1.49-1.067.4-2.161.75-3.281 1.05-.548.107-.978.16-1.291.16-.313 0-.703.11-1.171.33-.14 0-.367.007-.68.02-.313.013-.633.02-.96.02-.328 0-.628.007-.901.02-.273.013-.467.02-.58.02-1.314 0-2.604-.02-3.872-.06a18.325 18.325 0 0 1-3.762-.51 15.798 15.798 0 0 0-1.66-.51 19.271 19.271 0 0 1-1.781-.56.973.973 0 0 1-.25-.12c-.167-.053-.278-.107-.331-.16-.027 0-.107-.013-.24-.04a3.03 3.03 0 0 0-.45-.07 6.084 6.084 0 0 1-.5-.06 2.378 2.378 0 0 0-.37-.04H14.209a80.49 80.49 0 0 0-.65.33c-.333.167-.697.35-1.09.55-.394.207-.778.393-1.151.56-.367.16-.633.27-.8.33-.107.08-.283.147-.53.2-.248.053-.398.08-.451.08-.113 0-.203-.15-.27-.45-.067-.3-.12-.647-.16-1.04-.04-.4-.077-.79-.11-1.17-.027-.387-.04-.66-.04-.82zm48.429-52.3c0-.6.113-1.173.34-1.72a4.525 4.525 0 0 1 .97-1.44 4.735 4.735 0 0 1 1.451-.98 4.391 4.391 0 0 1 1.791-.37c.407 0 .803.097 1.191.29.38.187.74.43 1.08.73.347.307.663.63.95.97.288.34.541.647.761.92.187.14.293.347.32.62.033.273.05.56.05.86 0 .82-.167 1.51-.5 2.07a4.303 4.303 0 0 1-1.291 1.39 5.847 5.847 0 0 1-1.821.84c-.687.193-1.387.317-2.101.37-.953-.487-1.723-1.087-2.311-1.8-.587-.713-.88-1.63-.88-2.75zm-3.042 54.22v-.41c0-.653.177-1.077.531-1.27.36-.193.8-.317 1.32-.37.513-.053 1.068-.1 1.661-.14a2.49 2.49 0 0 0 1.531-.64c0-.16.017-.473.05-.94.027-.467.047-.967.06-1.5.013-.533.033-1.03.06-1.49.027-.467.04-.797.04-.99v-4.96a41.928 41.928 0 0 1 .1-2.5c.04-.607.077-1.25.11-1.93.027-.687.06-1.33.1-1.93a43.075 43.075 0 0 0 .1-2.42v-5.13l.04-.18c.027-.12.06-.243.1-.37a2.35 2.35 0 0 0 .11-.37l.04-.18.08-.17a.286.286 0 0 0-.02-.12.182.182 0 0 1-.02-.08c-.027-.027-.04-.053-.04-.08l-.13-.15-.28-.33a4.965 4.965 0 0 1-.31-.36 5.345 5.345 0 0 1-.19-.27c-.273-.387-.691-.667-1.251-.84-.56-.18-1.12-.353-1.681-.52a6.982 6.982 0 0 1-1.47-.59c-.428-.233-.641-.583-.641-1.05 0-.3.157-.55.471-.75.313-.207.58-.337.8-.39.08-.033.287-.077.62-.13a41.11 41.11 0 0 1 1.081-.16c.4-.053.763-.117 1.09-.19.327-.067.534-.113.621-.14.027-.027.12-.067.28-.12a7.13 7.13 0 0 0 .52-.19c.173-.067.337-.127.49-.18.147-.053.233-.08.26-.08.247-.087.658-.183 1.231-.29.58-.107 1.033-.243 1.361-.41.273-.14.513-.283.72-.43.2-.153.403-.29.61-.41.207-.127.427-.223.66-.29.234-.067.514-.1.841-.1.493 0 .863.233 1.11.7.241.46.361.937.361 1.43 0 .793-.06 1.593-.181 2.4-.12.807-.18 1.62-.18 2.44 0 .687.013 1.283.04 1.79.027.5.133 1.147.321 1.94v16.78c.033.08.07.19.11.33.04.133.067.283.08.45.013.16.033.317.06.47.027.153.067.257.12.31V61.035c0 .053-.013.147-.04.28-.027.14-.053.3-.08.48a2.831 2.831 0 0 1-.12.49c-.053.147-.097.25-.13.31v.37c0 .08.03.27.09.57.053.3.127.627.22.98.1.36.203.683.31.97.107.287.217.457.33.51.027.053.093.08.2.08h.29c.167 0 .323-.013.47-.04.154-.027.258-.04.311-.04.027.053.17.117.43.19.26.067.417.1.47.1.087.053.25.093.49.12.247.027.501.047.761.06.26.013.513.04.76.08.247.047.41.083.49.11.307.053.5.243.58.57.081.327.121.6.121.82 0 .44-.178.763-.531.97-.36.2-.73.33-1.11.39H65.26c-.054 0-.184-.017-.391-.05-.207-.027-.427-.06-.66-.1a40.09 40.09 0 0 1-.65-.12 2.932 2.932 0 0 0-.39-.06h-.371c-.74 0-1.513.053-2.321.16-.807.113-1.62.17-2.441.17h-2.131c-.053-.06-.24-.157-.56-.29a21.24 21.24 0 0 1-.63-.29.87.87 0 0 1-.371-.7zm31.106-26.12v2.87c0 .027.034.1.1.22.067.127.144.257.23.39.08.14.154.277.22.41.067.14.1.237.1.29.087.22.15.453.19.7l.12.74c.04.24.105.47.191.69.08.22.204.413.37.58.08.027.2.1.36.22.167.127.34.257.52.39.174.14.337.27.49.39.154.127.258.203.311.23.054.053.147.217.28.49.14.273.237.437.29.49.247.167.534.323.86.47.327.153.678.29 1.051.41a7.82 7.82 0 0 0 1.07.29c.34.067.648.1.921.1 1.527 0 2.731-.32 3.611-.96a6.587 6.587 0 0 0 2.051-2.48c.495-1.013.855-2.137 1.081-3.37.234-1.227.474-2.413.72-3.56 0-.027.037-.123.11-.29.067-.167.1-.277.1-.33v-.29c0-.793-.083-1.577-.25-2.35-.16-.78-.413-1.5-.76-2.16a6.47 6.47 0 0 0-1.351-1.76c-.56-.52-1.236-.93-2.031-1.23-.166-.053-.393-.13-.68-.23-.286-.093-.573-.18-.861-.26a27.309 27.309 0 0 0-.8-.23 3.554 3.554 0 0 1-.45-.14h-.901c-.986 0-1.87.223-2.651.67a6.894 6.894 0 0 0-2.011 1.77c-.56.72-1.023 1.527-1.39 2.42a14.74 14.74 0 0 0-.841 2.64c-.053.053-.08.247-.08.58v.57c0 .053-.05.163-.15.33-.093.167-.14.263-.14.29zm-2.181 34.57c0 .493.144.947.43 1.36.294.407.547.803.761 1.19.027.053.077.147.15.28.067.14.134.283.2.43.067.153.13.29.19.41a.961.961 0 0 0 .12.23c.08.08.25.243.51.49s.54.52.841.82c.3.3.604.587.91.86.3.273.517.48.65.62.548.52 1.145.873 1.791 1.06.64.193 1.288.373 1.941.54.06 0 .177.027.35.08.18.053.374.123.58.21.201.08.391.147.571.2.18.053.297.08.35.08h2.011c1.42 0 2.691-.087 3.812-.26a13.021 13.021 0 0 0 3.161-.91c.988-.42 1.945-.993 2.871-1.72.935-.727 1.891-1.623 2.872-2.69.034-.08.084-.203.15-.37.067-.16.1-.28.1-.36.247-1.18.37-2.317.37-3.41a14.67 14.67 0 0 0-.37-3.32c0-.027-.083-.17-.25-.43-.16-.26-.35-.54-.57-.84-.221-.3-.434-.58-.641-.84-.2-.26-.326-.403-.38-.43a6.229 6.229 0 0 0-1.791-.7 25.157 25.157 0 0 0-1.841-.35c-.62-.093-1.223-.19-1.811-.29a6.646 6.646 0 0 1-1.7-.51h-6.974a17.562 17.562 0 0 0-1.05.08c-.26.027-.52.047-.78.06a3.317 3.317 0 0 0-.591.07c-.086.027-.23.06-.43.1-.206.04-.42.087-.64.14a3.21 3.21 0 0 0-.641.23c-.2.093-.356.193-.47.3-.133.113-.35.307-.65.58-.306.273-.61.56-.91.86-.301.3-.581.573-.841.82s-.43.41-.51.49a8.238 8.238 0 0 0-1.351 2.28 6.842 6.842 0 0 0-.5 2.56zm7.183 12.64l-.41.16c-.22.08-.396.12-.53.12a.477.477 0 0 0-.12.08.354.354 0 0 1-.17.05.245.245 0 0 1-.16-.07.278.278 0 0 0-.17-.06c-.053 0-.17-.027-.351-.08a8.534 8.534 0 0 1-.57-.2 11.384 11.384 0 0 0-.59-.23c-.193-.067-.33-.113-.41-.14a3.668 3.668 0 0 0-.5-.13 53.791 53.791 0 0 0-.861-.16 53.61 53.61 0 0 1-.86-.16c-.273-.06-.437-.103-.491-.13a20.838 20.838 0 0 1-2.651-1.31 12.324 12.324 0 0 1-2.401-1.83 9.266 9.266 0 0 1-1.741-2.35c-.453-.88-.68-1.853-.68-2.92v-.94c0-.053.044-.163.13-.33.08-.16.134-.27.16-.33 0-.027.014-.127.04-.3.027-.18.054-.38.08-.6.027-.22.057-.423.09-.61.027-.193.04-.317.04-.37a2.41 2.41 0 0 0 .2-.31c.114-.18.237-.387.37-.62.141-.227.271-.463.391-.71.127-.247.23-.44.31-.58.027 0 .08-.033.16-.1.087-.067.144-.1.17-.1a5.125 5.125 0 0 0 1.411-1.4 5.998 5.998 0 0 1 1.38-1.43c.274-.22.541-.42.801-.6.26-.173.49-.35.69-.53.207-.18.37-.393.49-.64.127-.247.19-.533.19-.86 0-.273-.063-.49-.19-.65-.12-.167-.27-.29-.45-.37a2.74 2.74 0 0 0-.59-.21 4.257 4.257 0 0 1-.621-.2c-.653-.387-1.2-.743-1.64-1.07-.434-.327-.801-.79-1.101-1.39a10.776 10.776 0 0 0-.35-.7c-.153-.273-.296-.54-.43-.8-.14-.26-.263-.493-.37-.7a40.38 40.38 0 0 1-.211-.39v-.49c0-.273.014-.607.041-1 .027-.4.077-.797.15-1.19.067-.4.16-.783.28-1.15.127-.373.3-.683.52-.93.027-.053.114-.147.26-.28.154-.14.32-.29.5-.45.174-.167.337-.327.491-.48.147-.147.25-.26.31-.34.46-.307.984-.597 1.57-.87a7.143 7.143 0 0 0 1.581-.98c.14-.027.314-.17.52-.43.201-.26.301-.417.301-.47a3.604 3.604 0 0 0-.241-.37c-.053-.08-.11-.163-.17-.25a.448.448 0 0 0-.16-.16 24.1 24.1 0 0 0-.74-.82c-.353-.387-.73-.783-1.131-1.19a61.63 61.63 0 0 0-1.12-1.15c-.36-.353-.606-.587-.74-.7a6.781 6.781 0 0 1-.701-1.56 33.318 33.318 0 0 0-.53-1.6v-.47c0-.233-.006-.487-.02-.76-.013-.273-.02-.54-.02-.8v-.55c0-1.913.257-3.573.77-4.98.521-1.407 1.268-2.61 2.241-3.61.975-1 2.158-1.8 3.552-2.4 1.395-.6 2.981-1.067 4.762-1.4.027 0 .19-.013.491-.04.3-.027.647-.053 1.04-.08.4-.027.797-.06 1.191-.1.4-.04.724-.06.97-.06h.74c.187.053.365.107.531.16.274.08.464.12.57.12.114 0 .264.023.45.07a53.02 53.02 0 0 0 1.131.22c.154.027.244.04.27.04.407.027.79.077 1.15.15.354.067.695.14 1.021.22.327.08.664.157 1.01.23.34.067.701.1 1.081.1.88 0 1.718-.103 2.511-.31a32.51 32.51 0 0 0 2.381-.72c.027 0 .134-.047.32-.14a6.51 6.51 0 0 0 .6-.33l.571-.33c.18-.093.297-.14.35-.14.107 0 .217-.013.33-.04.08 0 .17-.007.27-.02.094-.013.167-.02.22-.02.521 0 1.068.04 1.641.12.574.08 1.101.237 1.581.47.48.233.877.557 1.19.97.315.407.471.927.471 1.56 0 1.007-.234 1.647-.701 1.92-.46.273-1.156.41-2.091.41-.406 0-.796-.067-1.17-.2-.366-.14-.734-.29-1.101-.45-.373-.167-.75-.317-1.13-.45a3.471 3.471 0 0 0-1.191-.21c-.626 0-1.07.207-1.33.62-.261.407-.391.883-.391 1.43 0 .273.034.493.1.66.067.16.15.303.25.43.095.12.188.25.281.39.1.133.177.323.23.57.327.713.634 1.44.92 2.18.287.733.43 1.497.43 2.29 0 .44-.053 1.05-.16 1.83-.113.78-.27 1.58-.47 2.4-.206.82-.473 1.577-.8 2.27-.333.7-.704 1.2-1.111 1.5-.053.027-.17.097-.35.21-.18.107-.376.23-.59.37-.22.133-.42.27-.601.41-.18.133-.283.213-.31.24-.326.3-.626.607-.9.92-.273.32-.586.533-.941.64-.06 0-.183.013-.37.04-.193.027-.4.06-.62.1a9.248 9.248 0 0 1-.94.15 1.287 1.287 0 0 1-.211.14 6.473 6.473 0 0 1-.36.21c-.14.067-.27.127-.39.18a1 1 0 0 1-.23.08 1.52 1.52 0 0 1-.33.09c-.16.027-.343.053-.55.08-.207.027-.401.053-.581.08-.173.027-.303.04-.39.04-.98.107-1.964.183-2.951.23-.987.04-1.964.113-2.932.22-.973.113-1.911.3-2.811.56a9.19 9.19 0 0 0-2.591 1.2c-.106.06-.233.15-.38.27a4.976 4.976 0 0 0-.421.39c-.12.14-.226.263-.32.37l-.15.16c0 .087.077.327.23.72.147.4.277.68.39.84.195.52.411 1 .651 1.44.247.433.644.72 1.19.86 1.181.353 2.338.64 3.472.86 1.135.22 2.345.33 3.632.33.627 0 1.414-.063 2.361-.19.94-.12 1.768-.263 2.481-.43.167-.027.304-.067.41-.12l.41-.16h.741c1.094.133 2.265.303 3.511.51 1.241.207 2.452.46 3.632.76.24.08.504.21.79.39.295.173.585.363.871.57.287.207.56.42.82.64.26.22.484.397.671.53.467.413.947.9 1.44 1.46.494.56.945 1.153 1.351 1.78a12.18 12.18 0 0 1 1.05 1.95c.287.667.471 1.317.551 1.95.054 1.04.117 2.093.19 3.16.067 1.067.1 2.103.1 3.11 0 .027-.006.047-.02.06-.013.02-.02.057-.02.11a.364.364 0 0 0-.04.16 4.74 4.74 0 0 1-.521 1.54c-.26.48-.566.923-.92 1.33-.353.413-.73.803-1.131 1.17a63.25 63.25 0 0 0-1.12 1.09c-.14.08-.333.21-.58.39-.246.173-.501.357-.761.55-.26.193-.5.373-.72.54-.213.16-.35.253-.41.28a1.268 1.268 0 0 1-.3.08l-.501.11a7.76 7.76 0 0 1-.51.1c-.16.027-.253.053-.28.08-.113.027-.353.13-.72.31-.373.18-.771.37-1.191.57-.426.207-.816.4-1.17.58a12.01 12.01 0 0 1-.661.31c-.186.133-.48.283-.88.45-.393.16-.646.24-.76.24-.026.027-.144.053-.351.08-.2.033-.423.063-.67.09-.246.027-.48.053-.7.08-.22.027-.356.04-.41.04-.054.08-.217.163-.491.25-.273.08-.466.12-.58.12-.16 0-.33-.013-.51-.04a3.06 3.06 0 0 0-.35-.04c-.106.053-.347.113-.721.18-.366.067-.646.13-.84.19-.026 0-.113.027-.26.08a12.393 12.393 0 0 0-1.011.39c-.16.067-.256.113-.29.14h-.28a8.978 8.978 0 0 0-.52-.08c-.2-.027-.41-.053-.631-.08-.22-.027-.426-.057-.62-.09a1.693 1.693 0 0 1-.37-.08c-.026 0-.1-.013-.22-.04a7.745 7.745 0 0 1-.41-.1c-.153-.04-.29-.073-.41-.1a1.494 1.494 0 0 0-.271-.04zm25.692-20.59c0-.307.02-.597.061-.87.04-.273.17-.503.39-.69.107 0 .327-.02.66-.06.327-.047.66-.09 1-.13.341-.04.668-.087.981-.14.32-.053.547-.08.68-.08.628-.087 1.071-.347 1.331-.78.26-.44.433-.96.52-1.56.08-.6.133-1.223.16-1.87.027-.64.137-1.207.33-1.7.027-.353.047-.96.06-1.82.013-.867.033-1.777.06-2.73a210.49 210.49 0 0 0 .08-4.51c0-.087.007-.3.02-.64.02-.34.03-.73.03-1.17 0-.433.007-.877.02-1.33.013-.453.02-.83.02-1.13 0-.22-.007-.527-.02-.92-.013-.4-.02-.79-.02-1.17 0-.387-.01-.737-.03-1.05-.013-.313-.02-.497-.02-.55a17.041 17.041 0 0 0-.08-1.27c-.027-.273-.047-.52-.06-.74-.013-.22-.033-.357-.06-.41-.027-.107-.137-.257-.33-.45l-.45-.45c-.053-.22-.23-.487-.53-.8-.3-.313-.521-.5-.661-.56a1.742 1.742 0 0 0-.94-.3c-.36-.013-.717-.037-1.071-.07a2.58 2.58 0 0 1-.94-.24c-.273-.14-.453-.44-.54-.9 0-.06.05-.163.15-.31.093-.153.167-.257.22-.31.027-.08.103-.183.23-.31l.39-.39c.133-.133.263-.25.39-.35.12-.093.208-.153.261-.18.033-.053.193-.177.48-.37s.633-.403 1.04-.63a200.4 200.4 0 0 1 1.251-.7c.427-.233.777-.42 1.05-.56.441-.24.934-.437 1.481-.59a10.012 10.012 0 0 0 1.601-.6c.46-.3.847-.587 1.16-.86.321-.273.754-.41 1.301-.41.52 0 .9.2 1.141.6.247.393.427.857.54 1.39.107.533.173 1.08.2 1.64.027.56.07 1.02.13 1.38 0 .107.007.29.02.55.013.26.027.54.04.84.013.3.033.587.06.86.027.273.053.48.08.62.14.22.277.377.41.47.14.093.333.14.58.14h.361c.06-.08.157-.193.29-.34.14-.153.29-.313.45-.48.167-.16.317-.317.45-.47.14-.147.237-.263.29-.35 0-.027.063-.12.19-.28.12-.167.181-.277.181-.33.247-.387.54-.64.88-.76.34-.127.663-.38.97-.76.628-.847 1.298-1.537 2.011-2.07a56.792 56.792 0 0 1 2.461-1.74 3.73 3.73 0 0 1 1.971-.8c.708-.073 1.458-.11 2.251-.11.661 0 1.258.057 1.791.17a6.946 6.946 0 0 1 1.491.47c.467.207.927.46 1.381.76.447.3.903.653 1.37 1.06a26.654 26.654 0 0 1 1.701 1.69c.587.627.991 1.323 1.211 2.09 0 .187.02.453.06.8.047.34.103.673.17 1 .067.327.127.627.18.9.053.273.097.44.13.5v3.11c0 .033.013.137.04.31.027.18.06.373.1.58l.12.59c.04.193.06.317.06.37v.62c0 .08-.02.27-.06.57a41.29 41.29 0 0 0-.22 1.99c-.027.313-.04.523-.04.63V56.975c0 .053-.017.177-.05.37-.027.187-.06.383-.1.59a14.024 14.024 0 0 0-.14.88v4.27c0 .38.027.823.08 1.33.053.507.23.993.53 1.46.307-.053.603-.097.891-.13a9.389 9.389 0 0 1 1.74 0c.273.033.534.077.781.13.08 0 .197.087.35.26.147.18.247.323.3.43 0 .06.017.13.05.21 0 .053.007.107.02.16a.71.71 0 0 1 .02.13c0 .247-.063.5-.19.76-.12.26-.27.497-.45.71-.18.22-.383.4-.611.54-.233.133-.46.2-.68.2h-.29a2.536 2.536 0 0 0-.41-.12 5.557 5.557 0 0 0-.701-.12 33.66 33.66 0 0 0-.71-.09 5.484 5.484 0 0 0-.43-.04c-.087 0-.3.013-.64.04l-1.131.09a17.11 17.11 0 0 0-1.19.12c-.381.053-.654.093-.821.12-.053 0-.203.033-.45.1-.247.073-.41.11-.49.11h-4.682c-.081.027-.258.053-.531.08-.273.027-.567.053-.88.08-.313.027-.607.053-.881.08-.273.027-.453.04-.54.04h-.49c-.133 0-.27-.08-.41-.24a3.481 3.481 0 0 1-.631-1.27 2.267 2.267 0 0 1-.11-.62c0-.353.241-.613.721-.78a9.363 9.363 0 0 1 1.641-.37c.613-.08 1.217-.153 1.81-.22.588-.073 1.004-.19 1.251-.35.08-.053.18-.177.3-.37.127-.193.257-.4.39-.62.14-.213.257-.43.35-.65.101-.22.178-.4.231-.54.08-.24.133-.437.16-.59.027-.153.053-.29.08-.41.033-.12.05-.257.05-.41v-3.51-.65c0-.36.007-.75.02-1.17.013-.427.02-.823.02-1.19v-.68c-.027-.3-.05-.763-.07-1.39-.013-.633-.033-1.34-.06-2.12-.027-.773-.047-1.593-.06-2.46l-.04-2.46c-.013-.78-.02-1.477-.02-2.09v-1.37a7.526 7.526 0 0 0-.511-2.14 7.834 7.834 0 0 0-1.17-2.03 6.767 6.767 0 0 0-1.681-1.51 4.06 4.06 0 0 0-2.051-.64 4.594 4.594 0 0 0-1.03.04c-.381.053-.778.123-1.191.21-.407.08-.803.18-1.191.3-.38.127-.733.243-1.06.35-.167.087-.42.21-.76.37-.348.167-.684.337-1.011.51-.327.18-.62.34-.88.48-.26.133-.39.227-.39.28-.081.06-.238.24-.471.54-.233.3-.467.627-.7.98-.233.353-.45.683-.65.99-.207.3-.338.49-.391.57-.493.713-.777 1.45-.85 2.21-.067.767-.18 1.59-.34 2.47-.06.107-.123.323-.19.65s-.1.56-.1.7v2.46c0 .08-.027.27-.08.57-.06.307-.117.637-.17.99-.053.353-.107.687-.16 1-.053.32-.08.533-.08.64V60.415c0 .6.02 1.183.06 1.75.04.56.087 1.133.14 1.72.053.587.15 1.25.29 1.99.16.3.4.49.72.57.313.08.66.12 1.041.12.22 0 .44-.013.66-.04.22-.027.453-.04.7-.04.38 0 .721.2 1.021.6.3.393.45.81.45 1.25 0 .493-.19.82-.57.98-.388.167-.811.25-1.271.25-.22 0-.42-.013-.6-.04a3.072 3.072 0 0 0-.47-.04c-.848 0-1.694-.05-2.542-.15a23.351 23.351 0 0 0-2.551-.14c-1.067 0-2.161.047-3.281.14-1.121.1-2.254.15-3.402.15-.193 0-.453.02-.78.06-.327.04-.628.06-.901.06-.44 0-.817-.067-1.13-.2-.313-.14-.471-.4-.471-.78zm62.455-19.08c-.08 0-.28.083-.6.25-.315.167-.641.35-.981.55-.34.207-.67.413-.99.62-.314.207-.525.35-.631.43-.054.08-.217.257-.49.53-.274.273-.57.567-.89.88-.314.32-.608.617-.881.89-.274.273-.437.45-.49.53-.107 0-.244.053-.41.16l-.25.13c-.134.133-.324.453-.571.96-.247.507-.45 1.033-.61 1.58-.194.547-.304.957-.33 1.23-.027.273-.04.643-.04 1.11 0 .68.08 1.307.24 1.88.166.58.603 1.047 1.311 1.4.113.053.273.113.48.18.2.073.403.137.61.19.206.053.393.1.561.14.16.04.28.06.36.06a13.086 13.086 0 0 0 1.23-.08c.246-.027.474-.053.681-.08.206-.027.363-.053.47-.08 1.013-.22 1.821-.557 2.421-1.01.606-.453 1.03-1.17 1.271-2.15.06-.247.143-.57.25-.97.106-.393.21-.787.31-1.18.093-.4.183-.757.27-1.07.08-.313.12-.5.12-.56.053 0 .086-.06.1-.18.013-.12.02-.197.02-.23 0-.08-.007-.18-.02-.3-.014-.127-.047-.217-.1-.27a4.906 4.906 0 0 1-.12-.53 3.35 3.35 0 0 1-.09-.7v-1.56a4.816 4.816 0 0 0-.28-.84c-.14-.313-.3-.613-.48-.9a2.67 2.67 0 0 0-.631-.72 1.3 1.3 0 0 0-.82-.29zm-15.637 11.86c0-.687.083-1.487.25-2.4.16-.92.486-1.68.98-2.28l.39-.41c.233-.247.501-.527.801-.84.3-.313.606-.62.92-.92.32-.3.56-.533.72-.7a24.794 24.794 0 0 1 2.792-2.19 26.093 26.093 0 0 1 3.041-1.79c.133-.053.37-.107.711-.16.346-.053.56-.11.64-.17.08-.027.236-.1.47-.22.233-.127.486-.263.76-.41.274-.153.527-.29.761-.41.233-.127.376-.19.43-.19.466-.22.896-.397 1.291-.53.4-.14.776-.29 1.13-.45a6.732 6.732 0 0 0 1.021-.6c.333-.227.65-.547.95-.96.053-.107.1-.303.14-.59.04-.293.073-.61.1-.95a18.89 18.89 0 0 0 .09-1.66 51.6 51.6 0 0 0-.04-1.99 8.829 8.829 0 0 0-.31-1.93 5.493 5.493 0 0 0-.82-1.68c-.375-.507-.901-.91-1.581-1.21a2.58 2.58 0 0 0-.37-.12c-.194-.053-.4-.117-.621-.19a18.002 18.002 0 0 0-.61-.18 1.986 1.986 0 0 0-.37-.08c0-.027-.054-.07-.16-.13a13.17 13.17 0 0 1-.37-.18 2.858 2.858 0 0 0-.41-.16 2.482 2.482 0 0 1-.291-.11h-.21c-.354 0-.627.043-.82.13-.187.08-.43.23-.73.45-.115.053-.251.12-.411.2a6.258 6.258 0 0 0-.5.29c-.16.107-.304.197-.43.27-.12.067-.194.1-.22.1-.06.053-.13.157-.21.31-.08.147-.154.31-.22.49-.074.18-.137.343-.19.49a1.4 1.4 0 0 0-.081.27 1.254 1.254 0 0 0-.08.31c-.027.147-.054.31-.08.49-.034.173-.064.337-.09.49-.027.153-.04.243-.04.27 0 .08-.054.25-.16.51-.114.26-.21.417-.29.47-.107.6-.18 1.107-.22 1.52-.047.407-.15.733-.31.98-.167.247-.42.42-.76.52-.341.093-.855.14-1.541.14a39.64 39.64 0 0 1-1.821-.04c-.594-.027-1.115-.13-1.561-.31a2.353 2.353 0 0 1-1.09-.86c-.274-.4-.41-.953-.41-1.66 0-.3.013-.63.04-.99.026-.353.123-.653.29-.9.026-.027.093-.1.2-.22a9.444 9.444 0 0 1 .76-.76c.126-.113.216-.197.27-.25 2.354-1.747 4.808-3.177 7.364-4.29 2.561-1.107 5.302-1.66 8.224-1.66.686 0 1.38.043 2.081.13.693.08 1.37.237 2.031.47a6.858 6.858 0 0 1 1.8.96c.547.413.997.933 1.351 1.56.086.167.19.387.31.66.126.273.256.547.39.82.14.273.256.503.35.69.094.193.141.303.141.33.033.087.063.287.09.6l.08.98c.026.34.053.67.08.99.026.313.04.51.04.59 0 .08.056.203.17.37.053.08.12.15.2.21.026 0 .04.067.04.2v.04l-.04.04a9.034 9.034 0 0 0-.37 1.89c-.054.627-.15 1.283-.29 1.97 0 .027-.034.217-.1.57-.068.36-.101.593-.101.7-.054.027-.08.287-.08.78 0 .433.013.883.04 1.35.026.467.04.767.04.9 0 .06-.02.163-.06.31l-.13.49c-.04.18-.08.347-.12.5-.04.147-.06.233-.06.26 0 .087-.027.47-.08 1.15-.054.687-.117 1.473-.19 2.36-.067.887-.134 1.79-.2 2.71-.067.913-.117 1.657-.15 2.23V59.595c0 .113.016.327.05.64.026.313.053.647.08 1 .026.36.053.703.08 1.03.026.327.053.573.08.74.386.433.867.747 1.441.94.573.193 1.106.29 1.601.29.546 0 1.03-.07 1.45-.21.426-.133.874-.2 1.341-.2.053 0 .223.007.51.02.286.013.47.02.55.02.274.133.444.297.511.49.073.193.11.44.11.74v.16c0 .087-.027.13-.08.13l-2.832 2.91-.33.16c-.274.113-.454.17-.54.17-.08 0-.284.013-.61.04-.328.027-.685.053-1.071.08-.38.027-.74.053-1.08.08-.348.027-.561.053-.641.08-.054 0-.19.02-.41.06-.22.047-.454.09-.7.13-.247.04-.47.073-.671.1-.207.027-.337.027-.39 0-.06 0-.164-.02-.31-.06a4.536 4.536 0 0 1-.51-.17 9.405 9.405 0 0 0-.58-.18 2.556 2.556 0 0 1-.451-.16 7.348 7.348 0 0 1-1.31-.66c-.44-.273-.771-.6-.991-.98a5.048 5.048 0 0 1-.39-1.01c-.094-.367-.2-.71-.32-1.03a2.271 2.271 0 0 0-.52-.79c-.22-.22-.561-.33-1.021-.33-.027 0-.047.007-.06.02-.014.013-.037.02-.07.02h-.08c-.68.433-1.22.94-1.621 1.52a8.37 8.37 0 0 1-1.45 1.6c-.468.38-.941.7-1.421.96-.48.26-.964.58-1.451.96-.14.053-.38.11-.72.17a66.92 66.92 0 0 0-1.111.18c-.394.067-.777.123-1.15.17-.367.04-.634.06-.8.06a12.227 12.227 0 0 1-1.041-.08c-.234-.033-.454-.07-.66-.11a3.85 3.85 0 0 1-.43-.1c-.054 0-.144-.047-.271-.14-.12-.1-.25-.203-.39-.31a7.744 7.744 0 0 0-.39-.31c-.12-.093-.194-.14-.22-.14-1.208-.82-2.021-1.833-2.441-3.04-.427-1.2-.64-2.483-.64-3.85zm34.714 7.5c-.38-.133-.64-.297-.781-.49-.133-.193-.2-.48-.2-.86 0-.6.274-.99.821-1.17a10.38 10.38 0 0 1 1.861-.41c.7-.093 1.35-.243 1.951-.45.6-.207.97-.637 1.11-1.29.133-1.04.217-2.003.25-2.89.027-.893.04-1.777.04-2.65v-2.26c0-2.133-.05-4.28-.15-6.44-.093-2.16-.14-4.32-.14-6.48 0-1.94.047-3.84.14-5.7.1-1.86.15-3.747.15-5.66 0-1.8-.05-3.577-.15-5.33-.093-1.747-.14-3.523-.14-5.33v-1.76a7.437 7.437 0 0 0-.84-1.71c-.34-.507-.828-.88-1.461-1.12-.16-.087-.48-.17-.96-.25-.481-.08-.974-.177-1.481-.29a7.34 7.34 0 0 1-1.351-.41c-.4-.16-.6-.393-.6-.7 0-.213.063-.437.19-.67.12-.233.277-.377.47-.43.961-.52 1.944-.973 2.952-1.36a80.25 80.25 0 0 0 3.081-1.23c.413-.187.844-.403 1.291-.65.453-.247.92-.487 1.4-.72.474-.233.958-.427 1.451-.58a5.3 5.3 0 0 1 1.521-.22c.193 0 .447.013.76.04.313.027.54.11.68.25.107.107.188.317.241.63.053.313.08.54.08.68 0 .133.007.387.02.76.013.367.02.757.02 1.17 0 .407.01.803.03 1.19.013.38.02.653.02.82 0 .213-.007.527-.02.94-.02.407-.03.817-.03 1.23 0 .413-.007.783-.02 1.11-.013.327-.02.503-.02.53a54.725 54.725 0 0 1-.08 2.34c-.027.493-.06.963-.1 1.41-.041.453-.088.763-.141.93a.96.96 0 0 0-.09.3c-.027.153-.053.327-.08.52a16.82 16.82 0 0 1-.08.51c-.027.153-.04.257-.04.31v.37c0 .053.033.19.1.41.067.213.13.35.19.41v7.95c.301.633.478 1.243.531 1.83.053.587.08 1.263.08 2.03 0 .493-.013 1.053-.04 1.68a8.572 8.572 0 0 1-.25 1.76c0 1.127.013 2.2.04 3.22a96.5 96.5 0 0 1 .05 3.1c0 1.693-.03 3.36-.09 5a85.427 85.427 0 0 1-.321 5.09c-.033.14-.077.47-.13.99-.053.513-.113 1.067-.18 1.66-.067.587-.137 1.14-.21 1.66-.067.52-.113.833-.14.94v.37c0 .247.067.513.2.8a3.518 3.518 0 0 0 1.261 1.41c.253.167.503.25.75.25h5.303c.24 0 .443.063.61.19.167.12.303.277.41.47.107.187.19.377.25.57.053.193.08.37.08.53 0 .387-.103.69-.31.91-.207.213-.46.377-.76.49-.3.107-.62.173-.961.2-.34.033-.647.05-.92.05h-.87a217.128 217.128 0 0 0-8.104-.19 122.761 122.761 0 0 1-8.144-.31zm65.531-.2h-.941a1.71 1.71 0 0 0-.23.04c-.12.027-.25.06-.39.1-.133.04-.27.073-.41.1-.133.027-.213.04-.24.04-1.394.14-2.805.23-4.232.27-1.421.04-2.842.06-4.262.06-.3 0-.678-.007-1.131-.02a5.056 5.056 0 0 1-1.29-.2 3.086 3.086 0 0 1-1.071-.56c-.3-.247-.45-.6-.45-1.06 0-.36.083-.717.25-1.07.16-.353.39-.6.69-.74.273-.027.754-.053 1.441-.08.687-.027 1.404-.06 2.151-.1.753-.04 1.474-.08 2.161-.12.68-.047 1.158-.097 1.431-.15.167 0 .387-.007.66-.02a4.67 4.67 0 0 0 .84-.12c.287-.067.548-.157.781-.27a1.32 1.32 0 0 0 .55-.45c.327-.687.49-1.41.49-2.17v-4.56c0-.08.023-.27.07-.57.04-.3.08-.63.12-.99.04-.353.087-.693.14-1.02.053-.327.08-.533.08-.62.14-2.84.224-5.697.251-8.57.027-2.867.04-5.723.04-8.57 0-1.2-.013-2.377-.04-3.53a146.13 146.13 0 0 1-.041-3.44c0-.413.008-1.09.021-2.03.013-.947.02-1.933.02-2.96 0-1.02.007-1.99.02-2.91.013-.913.02-1.55.02-1.91-.134-.547-.318-1.003-.551-1.37a5.632 5.632 0 0 0-.93-1.09c-.133-.027-.37-.06-.71-.1-.348-.04-.704-.08-1.071-.12a34.5 34.5 0 0 0-1.071-.1 8.748 8.748 0 0 0-.71-.05c-.06 0-.19.023-.39.07-.207.04-.427.08-.66.12-.233.04-.461.08-.681.12-.213.04-.35.06-.41.06-.16.027-.493.04-1 .04h-3.182c-.493 0-.85-.013-1.07-.04a5.513 5.513 0 0 1-1.351.35 3.108 3.108 0 0 0-1.391.56c0 .053-.083.16-.25.32l-.33.33c-.22.247-.513.583-.88 1.01-.367.42-.731.85-1.091 1.29a34.255 34.255 0 0 1-1.43 1.68c-.194.247-.381.583-.561 1.01-.173.42-.37.83-.59 1.23-.22.393-.48.74-.78 1.04-.301.3-.671.45-1.111.45-.327 0-.56-.087-.7-.26a2.217 2.217 0 0 1-.32-.64v-.39c0-.18-.007-.37-.02-.57a9.874 9.874 0 0 1-.02-.62v-.43-.39c0-.18.007-.357.02-.53.013-.18.02-.343.02-.49v-.27c.027-.08.087-.293.18-.64.093-.34.197-.7.31-1.08.107-.387.21-.743.31-1.07.093-.327.167-.533.22-.62 0-.08.027-.257.08-.53a168.714 168.714 0 0 0 .37-1.74c.06-.26.103-.43.13-.51 0-.06.047-.213.14-.46.093-.24.198-.513.311-.82.107-.3.207-.573.3-.82.1-.247.15-.397.15-.45.08-.22.17-.473.27-.76.093-.287.213-.553.36-.8.153-.24.34-.45.56-.63.22-.18.481-.27.781-.27.46 0 .837.123 1.13.37.287.247.554.52.801.82.24.3.483.607.73.92.247.32.55.533.91.64.574 0 1.174-.013 1.801-.04.628-.027 1.258-.04 1.891-.04 1.174 0 2.334.027 3.482.08 1.153.053 2.291.177 3.411.37l.16.06.351.12c.12.047.243.083.37.11.12.027.197.04.23.04h1.311c.707 0 1.357-.07 1.95-.21a9.05 9.05 0 0 1 1.991-.2h1.101c.22 0 .413.007.58.02.16.013.267.033.32.06.113 0 .34.02.681.06.34.04.717.08 1.13.12.407.047.784.083 1.131.11.34.027.563.04.67.04.22-.087.487-.157.8-.21.321-.053.748-.093 1.281-.12a60.568 60.568 0 0 1 2.031-.06c.82-.013 1.844-.02 3.071-.02l7.434.08c.46 0 .937-.157 1.431-.47.493-.313.987-.683 1.48-1.11.493-.427.978-.843 1.451-1.25.48-.413.953-.7 1.421-.86h.49c.793 0 1.353.423 1.681 1.27.027.327.083.933.17 1.82.08.893.167 1.83.26 2.81.1.987.203 1.917.31 2.79.113.88.197 1.497.25 1.85 0 .053.013.15.04.29.027.133.06.29.1.47.04.173.073.337.1.49.027.153.04.243.04.27v.61c0 .713-.027 1.357-.08 1.93-.053.573-.12 1.23-.2 1.97-.113.22-.243.363-.39.43-.153.067-.297.1-.43.1-.087 0-.17-.04-.25-.12a.507.507 0 0 1-.2-.12 2.89 2.89 0 0 1-1.051-.83 6.398 6.398 0 0 1-.74-1.14 11.296 11.296 0 0 1-.551-1.3c-.167-.447-.33-.863-.49-1.25a6.046 6.046 0 0 0-2.281-2.83 21.087 21.087 0 0 0-3.261-1.8c-.714-.3-1.411-.45-2.091-.45a15.8 15.8 0 0 1-2.221-.17c-.053 0-.251-.06-.591-.18-.347-.127-.573-.19-.68-.19h-3.942c-.22 0-.533.05-.94.15-.414.093-.634.167-.661.22-.08.113-.173.223-.28.33-.193.247-.317.44-.37.58a6.1 6.1 0 0 0-.37.75c-.14.32-.21.493-.21.52-.027.08-.053.223-.08.43a9.206 9.206 0 0 0-.06.63c-.013.22-.033.433-.06.64-.027.207-.053.35-.08.43 0 .44.013 1.193.04 2.26.027 1.067.04 2.213.04 3.44 0 1.233-.013 2.39-.04 3.47-.027 1.08-.04 1.81-.04 2.19 0 1.393-.103 2.753-.311 4.08a26.436 26.436 0 0 0-.31 4.08c0 1.507.047 3.003.14 4.49.1 1.493.15 3.02.15 4.58 0 1.887-.05 3.787-.15 5.7-.093 1.913-.14 3.827-.14 5.74 0 .573.13 1.023.391 1.35.26.333.597.58 1.01.74.407.167.863.277 1.371.33.507.053.993.093 1.46.12.213.033.561.063 1.041.09.48.027.987.053 1.521.08.533.027 1.033.053 1.5.08.46.027.788.04.981.04.52.193.91.493 1.17.9.26.413.39.867.39 1.36 0 .627-.177 1.11-.53 1.45-.36.347-.813.697-1.36 1.05h-.081a16.09 16.09 0 0 1-2.811-.23c-.86-.147-1.771-.29-2.731-.43a64.308 64.308 0 0 0-8.864-.61zm31.48-.78c0-.44.087-.783.26-1.03.18-.247.414-.43.7-.55.287-.127.614-.21.98-.25.375-.04.738-.073 1.091-.1.054-.053.19-.08.41-.08.22 0 .46.013.72.04.261.027.431.04.511.04a5.685 5.685 0 0 0 1.62-1.5c.235-.313.428-.653.581-1.02.147-.373.22-.737.22-1.09l.13-7.75.08-1.56.33-7.79c.08-.493.127-.94.14-1.34.014-.393.02-.78.02-1.16 0-.467-.046-.98-.14-1.54-.1-.56-.286-1.06-.56-1.5-.38-.627-.837-1.22-1.371-1.78a7.767 7.767 0 0 0-1.831-1.42 1.81 1.81 0 0 0-.33-.1c-.16-.04-.33-.087-.51-.14a2.58 2.58 0 0 1-.49-.23c-.153-.093-.23-.197-.23-.31 0-.273.234-.573.7-.9.467-.327 1-.647 1.601-.96.6-.32 1.197-.593 1.791-.82.587-.233.99-.42 1.21-.56.38-.16.74-.37 1.081-.63.34-.26.684-.513 1.03-.76.34-.247.687-.46 1.041-.64.36-.173.757-.26 1.19-.26.334 0 .594.19.781.57.194.38.344.85.45 1.41.114.567.21 1.183.29 1.85.08.667.177 1.283.29 1.85a6.7 6.7 0 0 0 .41 1.41c.16.387.394.58.701.58.187 0 .307-.017.36-.05.06-.027.17-.133.33-.32.027-.06.15-.247.37-.56a44.377 44.377 0 0 1 1.561-2.03c.247-.3.41-.477.49-.53.274-.327.754-.737 1.441-1.23.68-.493 1.424-.973 2.231-1.44.807-.46 1.594-.863 2.361-1.21.767-.34 1.357-.51 1.771-.51.574 0 1.127.11 1.66.33.535.22 1.005.527 1.411.92.414.4.744.86.991 1.38.24.513.36 1.06.36 1.64 0 1.093-.236 2.05-.711 2.87-.48.82-1.293 1.46-2.441 1.92h-.5c-.486 0-.936-.113-1.351-.34a14.21 14.21 0 0 1-1.21-.78 12.194 12.194 0 0 0-1.211-.78 2.59 2.59 0 0 0-1.31-.35c-.627 0-1.181.103-1.661.31-.48.2-.967.41-1.461.63a3.03 3.03 0 0 1-.51.31c-.233.12-.466.257-.7.41a8.513 8.513 0 0 1-.651.39 3.147 3.147 0 0 1-.44.2c-.273.193-.516.467-.73.82-.22.36-.406.75-.561 1.17-.146.427-.27.86-.37 1.3a9.083 9.083 0 0 0-.18 1.14c0 .033-.013.163-.04.39-.026.233-.06.5-.1.8-.046.3-.083.597-.11.89-.026.287-.04.51-.04.67v.29c0 .193.007.57.02 1.13.014.56.034 1.217.06 1.97.027.747.05 1.537.07 2.37.014.84.034 1.633.06 2.38.027.753.047 1.41.06 1.97.014.56.02.937.02 1.13v4.31l.16.78c.087.38.19.783.31 1.21.128.42.265.817.411 1.19.154.367.31.59.47.67.247.113.597.21 1.05.29.455.08.905.183 1.351.31.454.12.844.29 1.171.51.327.22.49.507.49.86 0 .3-.093.553-.28.76a2.35 2.35 0 0 1-.701.51c-.273.14-.566.243-.88.31-.313.067-.593.1-.84.1a11.57 11.57 0 0 1-1.911-.16 11.094 11.094 0 0 0-1.911-.17c-.707 0-1.437.057-2.191.17a15.39 15.39 0 0 1-2.161.16h-.12c-.053 0-.156-.007-.311-.02-.146-.013-.31-.027-.49-.04-.18-.013-.343-.027-.49-.04a5.86 5.86 0 0 0-.27-.02c-.08 0-.283.02-.61.06-.334.04-.567.06-.701.06h-2.831c-.326 0-.67-.013-1.031-.04a4.136 4.136 0 0 1-.96-.18 1.9 1.9 0 0 1-.7-.41c-.173-.18-.26-.433-.26-.76zm39.558-25.84c0 .16.073.323.22.49.153.167.33.323.531.47.207.153.413.277.62.37.207.1.377.177.51.23h8.454c.22-.027.597-.07 1.131-.13.533-.053 1.093-.113 1.68-.18a35.172 35.172 0 0 0 1.681-.23c.533-.08.911-.16 1.131-.24.053-.053.13-.183.23-.39.093-.207.14-.337.14-.39v-.7c0-.08-.013-.237-.04-.47-.027-.233-.06-.48-.1-.74-.047-.26-.09-.513-.13-.76a7.08 7.08 0 0 0-.1-.53 2.913 2.913 0 0 1-.701-.7c-.187-.273-.383-.54-.59-.8-.207-.26-.427-.5-.66-.72a2.949 2.949 0 0 0-.841-.53c-.193-.08-.447-.197-.76-.35l-.92-.43a14.92 14.92 0 0 1-.781-.37c-.22-.107-.343-.173-.37-.2h-.61c-.193.027-.44.067-.741.12-.3.053-.6.1-.9.14-.307.047-.567.083-.78.11-.221.027-.344.04-.371.04-.087 0-.217.047-.39.14-.18.1-.373.203-.58.31-.2.107-.39.21-.57.31l-.35.18c-.468.167-.911.29-1.331.37-.427.08-.79.353-1.091.82-.053.08-.177.287-.37.62-.193.327-.317.53-.37.61-.16.3-.35.58-.57.84-.22.26-.427.52-.621.78a4.88 4.88 0 0 0-.49.86 2.66 2.66 0 0 0-.2 1.05zm-6.203 10.58v-1.35c.027-.14.06-.4.1-.78a13.5 13.5 0 0 0 .09-1.21c.013-.427.033-.83.06-1.21.027-.387.067-.647.12-.78a11.19 11.19 0 0 1 .231-1.66c.12-.62.27-1.243.45-1.87a14.91 14.91 0 0 1 .63-1.82 8.32 8.32 0 0 1 .82-1.54 2.58 2.58 0 0 0 .191-.19c.093-.093.197-.187.31-.28.107-.1.207-.19.3-.27.1-.08.163-.133.19-.16a.898.898 0 0 0 .1-.25c.04-.14.087-.277.14-.41.06-.14.11-.27.15-.39a.866.866 0 0 1 .1-.23 6.64 6.64 0 0 1 1.721-1.96 60.4 60.4 0 0 1 2.101-1.52c.487-.3.943-.58 1.371-.84.42-.26.843-.493 1.27-.7.427-.207.878-.39 1.351-.55.48-.167 1.02-.303 1.621-.41.06 0 .287-.017.68-.05.4-.027.86-.047 1.381-.06a66.392 66.392 0 0 0 1.59-.06c.548-.027.988-.04 1.321-.04h.74c.901.22 1.754.473 2.561.76.808.287 1.558.65 2.252 1.09.7.433 1.343.96 1.93 1.58a11.505 11.505 0 0 1 1.621 2.19c.027.053.07.21.13.47.053.26.107.39.16.39.167.413.363.783.591 1.11.233.327.453.647.66.96.207.313.377.643.51.99.14.34.21.73.21 1.17 0 .52-.213 1.017-.64 1.49-.42.48-.753.857-1.001 1.13-.167.053-.46.123-.88.21-.427.08-.893.16-1.401.24-.507.087-1.013.157-1.52.21-.501.053-.918.08-1.251.08a73.303 73.303 0 0 1-2.031-.08 53.21 53.21 0 0 0-1.621-.06c-.573-.013-1.12-.02-1.64-.02-.548 0-1.018.027-1.411.08-.4.053-.667.08-.8.08-.027 0-.144.013-.351.04-.207.027-.433.06-.68.1-.247.04-.48.077-.7.11-.213.027-.35.04-.41.04-.301.027-.738.04-1.311.04h-3.922c-.613 0-1.043-.013-1.291-.04-.22.027-.37.1-.45.22-.08.127-.147.257-.2.39l-.02.19c-.013.12-.02.263-.02.43V50.025c0 .253.007.49.02.71.013.22.02.343.02.37.027.573.243 1.347.65 2.32.414.973.901 1.95 1.461 2.93.56.987 1.161 1.897 1.801 2.73.647.833 1.244 1.387 1.791 1.66.107.08.367.23.78.45.407.22.844.447 1.311.68.467.233.91.45 1.33.65.428.207.721.353.881.44.14 0 .243-.017.31-.05a.74.74 0 0 1 .27-.04c.547 0 1.061.07 1.541.21.473.133.983.2 1.531.2h.62c.14 0 .29-.013.45-.04l4.102-2.13c.113-.327.25-.66.41-1 .167-.347.367-.657.601-.93.233-.273.507-.49.82-.65.313-.167.703-.25 1.17-.25h.04c.053.053.128.15.221.29.1.133.15.213.15.24 0 .06-.05.21-.15.45-.093.247-.168.44-.221.58-.3.793-.617 1.543-.95 2.25a14.053 14.053 0 0 1-1.231 2.14l-.28.28c-.14.14-.29.293-.45.46-.167.16-.327.317-.48.47-.147.147-.26.263-.34.35a5.37 5.37 0 0 0-.31.16c-.154.08-.318.17-.491.27a5.1 5.1 0 0 0-.48.28 3.29 3.29 0 0 0-.24.19c-.633.38-1.188.72-1.661 1.02-.48.3-.96.56-1.44.78-.481.22-.988.393-1.521.52-.533.12-1.141.18-1.821.18a20.45 20.45 0 0 1-5.172-.64c-1.641-.42-3.132-1.06-4.473-1.92a12.65 12.65 0 0 1-3.431-3.28c-.941-1.327-1.601-2.907-1.981-4.74-.113-.3-.237-.753-.37-1.36-.14-.6-.277-1.213-.41-1.84a77.16 77.16 0 0 1-.371-1.74c-.113-.533-.183-.87-.21-1.01zm41.206-10.58c0 .16.073.323.22.49.153.167.33.323.53.47.207.153.413.277.62.37.207.1.377.177.511.23h8.453c.221-.027.598-.07 1.131-.13a116.53 116.53 0 0 0 1.681-.18 35.527 35.527 0 0 0 1.681-.23c.533-.08.91-.16 1.13-.24.053-.053.13-.183.23-.39.093-.207.14-.337.14-.39v-.7c0-.08-.013-.237-.04-.47-.027-.233-.06-.48-.1-.74-.047-.26-.09-.513-.13-.76a7.08 7.08 0 0 0-.1-.53 2.909 2.909 0 0 1-.7-.7c-.187-.273-.383-.54-.59-.8-.208-.26-.428-.5-.661-.72a2.957 2.957 0 0 0-.84-.53c-.193-.08-.447-.197-.761-.35l-.92-.43c-.3-.133-.56-.257-.78-.37-.22-.107-.343-.173-.371-.2h-.61c-.193.027-.44.067-.74.12-.3.053-.6.1-.901.14-.307.047-.567.083-.78.11-.22.027-.343.04-.37.04-.087 0-.217.047-.39.14-.18.1-.373.203-.581.31-.2.107-.39.21-.57.31l-.35.18c-.467.167-.91.29-1.331.37-.427.08-.79.353-1.09.82-.053.08-.177.287-.37.62-.193.327-.317.53-.37.61-.161.3-.351.58-.571.84-.22.26-.427.52-.62.78a4.88 4.88 0 0 0-.49.86 2.66 2.66 0 0 0-.2 1.05zm-6.203 10.58v-1.35c.027-.14.06-.4.1-.78a13.5 13.5 0 0 0 .09-1.21c.013-.427.033-.83.06-1.21.027-.387.067-.647.12-.78.027-.493.103-1.047.23-1.66.12-.62.27-1.243.45-1.87.173-.627.383-1.233.631-1.82a8.32 8.32 0 0 1 .82-1.54 2.44 2.44 0 0 0 .19-.19c.093-.093.197-.187.31-.28.107-.1.207-.19.3-.27.1-.08.163-.133.19-.16a.898.898 0 0 0 .1-.25c.04-.14.087-.277.14-.41.06-.14.111-.27.151-.39a.866.866 0 0 1 .1-.23 6.636 6.636 0 0 1 1.72-1.96 61.37 61.37 0 0 1 2.101-1.52c.488-.3.944-.58 1.371-.84.42-.26.843-.493 1.271-.7.427-.207.877-.39 1.35-.55.48-.167 1.021-.303 1.621-.41.06 0 .287-.017.68-.05.401-.027.861-.047 1.381-.06a66.668 66.668 0 0 0 1.591-.06c.547-.027.987-.04 1.32-.04h.741c.9.22 1.754.473 2.561.76.807.287 1.558.65 2.251 1.09.7.433 1.344.96 1.931 1.58a11.59 11.59 0 0 1 1.621 2.19c.027.053.07.21.13.47.053.26.107.39.16.39.167.413.363.783.59 1.11.233.327.453.647.66.96.207.313.378.643.511.99.14.34.21.73.21 1.17 0 .52-.213 1.017-.641 1.49-.42.48-.753.857-1 1.13-.167.053-.46.123-.88.21-.428.08-.894.16-1.401.24-.507.087-1.014.157-1.521.21-.5.053-.917.08-1.25.08a73.234 73.234 0 0 1-2.031-.08 53.453 53.453 0 0 0-1.621-.06 72.634 72.634 0 0 0-1.641-.02c-.547 0-1.017.027-1.411.08-.4.053-.667.08-.8.08-.027 0-.143.013-.35.04-.207.027-.433.06-.68.1-.248.04-.481.077-.701.11-.213.027-.35.04-.41.04-.3.027-.737.04-1.311.04H371.229c-.614 0-1.044-.013-1.291-.04-.22.027-.37.1-.45.22-.08.127-.147.257-.2.39l-.02.19c-.013.12-.02.263-.02.43V50.025c0 .253.007.49.02.71.013.22.02.343.02.37.027.573.243 1.347.65 2.32.413.973.9 1.95 1.461 2.93.56.987 1.16 1.897 1.8 2.73.648.833 1.244 1.387 1.791 1.66.107.08.368.23.781.45.407.22.843.447 1.31.68.468.233.911.45 1.331.65.427.207.72.353.88.44.14 0 .243-.017.311-.05a.74.74 0 0 1 .27-.04c.547 0 1.06.07 1.54.21.474.133.984.2 1.531.2h.62c.14 0 .291-.013.451-.04l4.102-2.13c.113-.327.25-.66.41-1 .167-.347.367-.657.6-.93.233-.273.507-.49.82-.65.314-.167.704-.25 1.171-.25h.04c.053.053.127.15.22.29.1.133.15.213.15.24 0 .06-.05.21-.15.45l-.22.58c-.3.793-.617 1.543-.95 2.25a14.223 14.223 0 0 1-1.231 2.14l-.28.28c-.14.14-.29.293-.45.46a27.52 27.52 0 0 0-.821.82 5.37 5.37 0 0 0-.31.16c-.153.08-.317.17-.49.27a5.1 5.1 0 0 0-.48.28c-.133.1-.214.163-.241.19-.633.38-1.187.72-1.66 1.02-.481.3-.961.56-1.441.78-.48.22-.987.393-1.521.52a8.33 8.33 0 0 1-1.821.18 20.46 20.46 0 0 1-5.172-.64c-1.641-.42-3.131-1.06-4.472-1.92a12.653 12.653 0 0 1-3.432-3.28c-.94-1.327-1.6-2.907-1.981-4.74-.113-.3-.237-.753-.37-1.36-.14-.6-.277-1.213-.41-1.84a82.74 82.74 0 0 1-.37-1.74c-.113-.533-.183-.87-.21-1.01zM30.113 98.315l3.121 12.45.531 2.65.64-2.53 3.702-12.57h1.3l3.662 12.57.63 2.56.571-2.68 3.081-12.45h1.471l-4.372 17.06h-1.381l-3.872-13.35-.43-1.69-.42 1.69-3.962 13.35h-1.391l-4.362-17.06h1.481zm36.222 7.66v1.22h-7.984v6.96h9.175v1.22H56.911v-17.06h10.555v1.23h-9.115v6.43h7.984zm15.239 9.4h-5.702v-17.06h5.042c1.828 0 3.214.377 4.162 1.13.94.753 1.411 1.863 1.411 3.33 0 .887-.241 1.657-.721 2.31-.48.647-1.137 1.113-1.971 1.4.994.213 1.791.7 2.391 1.46a4.09 4.09 0 0 1 .911 2.63c0 1.507-.487 2.683-1.461 3.53-.973.847-2.328 1.27-4.062 1.27zm.18-8.2h-4.442v6.98h4.322c1.234 0 2.214-.313 2.942-.94.72-.633 1.08-1.507 1.08-2.62 0-1.053-.347-1.887-1.04-2.5-.688-.613-1.641-.92-2.862-.92zm-4.442-7.63v6.42h3.942c1.201-.027 2.131-.31 2.791-.85.661-.54.991-1.33.991-2.37 0-1.093-.343-1.9-1.031-2.42-.68-.52-1.71-.78-3.091-.78h-3.602zm28.23 11.63c0-.94-.33-1.687-.99-2.24-.667-.553-1.885-1.077-3.652-1.57-1.768-.493-3.058-1.033-3.872-1.62-1.154-.833-1.73-1.92-1.73-3.26 0-1.307.536-2.367 1.61-3.18 1.074-.82 2.448-1.23 4.122-1.23 1.134 0 2.147.22 3.042.66.893.44 1.587 1.05 2.081 1.83.493.78.74 1.65.74 2.61h-1.451c0-1.167-.4-2.103-1.2-2.81-.794-.707-1.865-1.06-3.212-1.06-1.307 0-2.348.293-3.121.88-.774.58-1.161 1.34-1.161 2.28 0 .867.351 1.573 1.051 2.12.693.547 1.807 1.027 3.341 1.44 1.527.42 2.688.857 3.482 1.31.786.447 1.381.983 1.781 1.61.4.62.6 1.357.6 2.21 0 1.347-.54 2.427-1.621 3.24-1.074.807-2.488 1.21-4.242 1.21-1.207 0-2.311-.213-3.311-.64-1.008-.427-1.771-1.027-2.291-1.8-.52-.78-.781-1.67-.781-2.67h1.441c0 1.207.45 2.157 1.351 2.85.9.7 2.097 1.05 3.591 1.05 1.327 0 2.395-.293 3.202-.88.8-.587 1.2-1.367 1.2-2.34zm11.62-12.86v17.06h-1.441v-17.06h1.441zm21.177 0v1.23h-5.843v15.83h-1.441v-15.83h-5.842v-1.23h13.126zm17.489 7.66v1.22h-7.984v6.96h9.175v1.22h-10.615v-17.06h10.555v1.23h-9.115v6.43h7.984zm31.313 4.08h1.451c-.194 1.793-.838 3.167-1.931 4.12-1.088.953-2.539 1.43-4.352 1.43-1.268 0-2.388-.313-3.362-.94-.973-.633-1.728-1.53-2.261-2.69-.527-1.16-.793-2.487-.8-3.98v-2.22c0-1.513.263-2.857.79-4.03.533-1.173 1.298-2.077 2.291-2.71 1.001-.64 2.148-.96 3.442-.96 1.828 0 3.271.497 4.332 1.49 1.06.987 1.678 2.35 1.851 4.09h-1.451c-.36-2.9-1.938-4.35-4.732-4.35-1.548 0-2.779.58-3.692 1.74-.92 1.153-1.381 2.75-1.381 4.79v2.09c0 1.967.447 3.537 1.341 4.71.893 1.173 2.104 1.76 3.632 1.76 1.507 0 2.644-.363 3.411-1.09.768-.72 1.241-1.803 1.421-3.25zm22.877-4.32v2.03c0 1.573-.274 2.953-.821 4.14-.54 1.187-1.314 2.1-2.321 2.74-1.014.64-2.181.96-3.501.96-1.995 0-3.606-.71-4.833-2.13-1.227-1.427-1.841-3.353-1.841-5.78v-1.75c0-1.56.277-2.937.831-4.13.553-1.2 1.333-2.123 2.341-2.77 1.006-.647 2.167-.97 3.482-.97 1.313 0 2.471.317 3.471.95 1.007.633 1.784 1.53 2.331 2.69.547 1.153.834 2.493.861 4.02zm-1.451 1.99v-1.81c0-2.053-.464-3.663-1.391-4.83-.927-1.16-2.201-1.74-3.821-1.74-1.588 0-2.852.583-3.792 1.75-.941 1.167-1.411 2.797-1.411 4.89v1.78c0 2.027.466 3.633 1.401 4.82.94 1.18 2.214 1.77 3.822 1.77 1.633 0 2.907-.583 3.821-1.75.914-1.167 1.371-2.793 1.371-4.88zm23.092-9.41v17.06h-1.441l-9.814-14.6v14.6h-1.451v-17.06h1.451l9.824 14.61v-14.61h1.431zm19.298 12.86c0-.94-.33-1.687-.991-2.24-.667-.553-1.883-1.077-3.651-1.57-1.768-.493-3.059-1.033-3.872-1.62-1.154-.833-1.731-1.92-1.731-3.26 0-1.307.537-2.367 1.611-3.18 1.073-.82 2.448-1.23 4.122-1.23 1.133 0 2.148.22 3.041.66.894.44 1.588 1.05 2.081 1.83.493.78.741 1.65.741 2.61h-1.451c0-1.167-.4-2.103-1.201-2.81-.793-.707-1.864-1.06-3.211-1.06-1.308 0-2.348.293-3.122.88-.773.58-1.16 1.34-1.16 2.28 0 .867.35 1.573 1.05 2.12.694.547 1.808 1.027 3.342 1.44 1.528.42 2.688.857 3.482 1.31.787.447 1.38.983 1.78 1.61.401.62.601 1.357.601 2.21 0 1.347-.541 2.427-1.621 3.24-1.074.807-2.488 1.21-4.242 1.21-1.208 0-2.311-.213-3.312-.64-1.007-.427-1.771-1.027-2.291-1.8-.52-.78-.78-1.67-.78-2.67h1.441c0 1.207.45 2.157 1.35 2.85.901.7 2.098 1.05 3.592 1.05 1.327 0 2.394-.293 3.201-.88.801-.587 1.201-1.367 1.201-2.34zm20.173-12.86h1.451v11.65c-.006 1.147-.26 2.147-.76 3-.5.847-1.207 1.5-2.121 1.96-.907.453-1.951.68-3.132.68-1.801 0-3.241-.49-4.322-1.47-1.08-.98-1.641-2.337-1.681-4.07v-11.75h1.431v11.54c0 1.44.41 2.557 1.231 3.35.82.793 1.935 1.19 3.341 1.19 1.408 0 2.518-.4 3.332-1.2.82-.8 1.23-1.91 1.23-3.33v-11.55zm12.229 0v15.84h8.434v1.22h-9.884v-17.06h1.45zm24.854 0v1.23h-5.843v15.83h-1.441v-15.83h-5.842v-1.23h13.126zm9.817 0v17.06h-1.441v-17.06h1.441zm22.646 0v17.06h-1.44l-9.815-14.6v14.6h-1.451v-17.06h1.451l9.825 14.61v-14.61h1.43zm21.96 8.96v6.07c-.501.713-1.285 1.27-2.352 1.67-1.067.393-2.261.59-3.581.59-1.335 0-2.521-.32-3.562-.96-1.04-.64-1.845-1.547-2.411-2.72-.574-1.167-.864-2.51-.87-4.03v-2.15c0-2.367.596-4.237 1.79-5.61 1.201-1.373 2.808-2.06 4.823-2.06 1.76 0 3.174.447 4.242 1.34 1.073.9 1.71 2.133 1.911 3.7h-1.441c-.214-1.247-.725-2.193-1.531-2.84-.807-.647-1.865-.97-3.171-.97-1.595 0-2.856.567-3.782 1.7-.935 1.133-1.401 2.733-1.401 4.8v2.01c0 1.3.22 2.447.66 3.44.441.993 1.074 1.767 1.901 2.32.827.547 1.774.82 2.842.82 1.246 0 2.314-.197 3.201-.59.581-.26 1.011-.56 1.291-.9v-4.41h-4.582v-1.22h6.023z" white-space="pre"/>
  <path fill="none" stroke="#000" stroke-width="4" d="M4.426 83.92h70.052M115.069 83.913h280.505"/>
</svg>
