<?xml version="1.0" encoding="utf-8"?>
<svg viewBox="1068.729 125.43 2000 2000" width="2000" height="2000" xmlns="http://www.w3.org/2000/svg">
  <defs>
    <clipPath id="clip-1">
      <rect width="2000" height="2000"/>
    </clipPath>
  </defs>
  <g style="clip-path: url(#clip-1);" transform="matrix(1, 0, 0, 1, 1068.729004, 125.43)">
    <path d="M895,1049L1125,958L932,877Z" fill="#fbfbfb" stroke="#fbfbfb" stroke-width="1.51"/>
    <path d="M895,1049L1146,1148L1125,958Z" fill="#f7f7f7" stroke="#f7f7f7" stroke-width="1.51"/>
    <path d="M1146,1148L1253,1029L1125,958Z" fill="#f0f0f0" stroke="#f0f0f0" stroke-width="1.51"/>
    <path d="M932,877L717,835L895,1049Z" fill="#eeeeee" stroke="#eeeeee" stroke-width="1.51"/>
    <path d="M1043,691L871,756L932,877Z" fill="#ebebeb" stroke="#ebebeb" stroke-width="1.51"/>
    <path d="M1043,691L932,877L1125,958Z" fill="#f1f1f1" stroke="#f1f1f1" stroke-width="1.51"/>
    <path d="M1253,1029L1280,961L1125,958Z" fill="#eeeeee" stroke="#eeeeee" stroke-width="1.51"/>
    <path d="M1264,763L1043,691L1125,958Z" fill="#e7e7e7" stroke="#e7e7e7" stroke-width="1.51"/>
    <path d="M871,756L717,835L932,877Z" fill="#e7e7e7" stroke="#e7e7e7" stroke-width="1.51"/>
    <path d="M1280,961L1264,763L1125,958Z" fill="#e8e8e8" stroke="#e8e8e8" stroke-width="1.51"/>
    <path d="M895,1049L911,1319L1146,1148Z" fill="#f2f2f2" stroke="#f2f2f2" stroke-width="1.51"/>
    <path d="M699,1368L911,1319L895,1049Z" fill="#e2e2e2" stroke="#e2e2e2" stroke-width="1.51"/>
    <path d="M717,835L648,1033L895,1049Z" fill="#ebebeb" stroke="#ebebeb" stroke-width="1.51"/>
    <path d="M1146,1148L1270,1245L1253,1029Z" fill="#e6e6e6" stroke="#e6e6e6" stroke-width="1.51"/>
    <path d="M1538,1157L1465,865L1280,961Z" fill="#e1e1e1" stroke="#e1e1e1" stroke-width="1.51"/>
    <path d="M1147,1351L1270,1245L1146,1148Z" fill="#e1e1e1" stroke="#e1e1e1" stroke-width="1.51"/>
    <path d="M911,1319L1147,1351L1146,1148Z" fill="#e8e8e8" stroke="#e8e8e8" stroke-width="1.51"/>
    <path d="M871,756L702,645L717,835Z" fill="#dcdcdc" stroke="#dcdcdc" stroke-width="1.51"/>
    <path d="M1043,691L884,553L871,756Z" fill="#e2e2e2" stroke="#e2e2e2" stroke-width="1.51"/>
    <path d="M1146,475L884,553L1043,691Z" fill="#dfdfdf" stroke="#dfdfdf" stroke-width="1.51"/>
    <path d="M467,868L537,1072L648,1033Z" fill="#dfdfdf" stroke="#dfdfdf" stroke-width="1.51"/>
    <path d="M884,553L702,645L871,756Z" fill="#d9d9d9" stroke="#d9d9d9" stroke-width="1.51"/>
    <path d="M648,1033L699,1368L895,1049Z" fill="#e2e2e2" stroke="#e2e2e2" stroke-width="1.51"/>
    <path d="M467,868L648,1033L717,835Z" fill="#dddddd" stroke="#dddddd" stroke-width="1.51"/>
    <path d="M911,1319L957,1457L1147,1351Z" fill="#e5e5e5" stroke="#e5e5e5" stroke-width="1.51"/>
    <path d="M699,1368L957,1457L911,1319Z" fill="#dadada" stroke="#dadada" stroke-width="1.51"/>
    <path d="M1280,961L1465,865L1264,763Z" fill="#dedede" stroke="#dedede" stroke-width="1.51"/>
    <path d="M1264,763L1301,550L1043,691Z" fill="#d9d9d9" stroke="#d9d9d9" stroke-width="1.51"/>
    <path d="M1538,1157L1280,961L1253,1029Z" fill="#e3e3e3" stroke="#e3e3e3" stroke-width="1.51"/>
    <path d="M486,1259L699,1368L648,1033Z" fill="#d4d4d4" stroke="#d4d4d4" stroke-width="1.51"/>
    <path d="M1548,718L1301,550L1264,763Z" fill="#cfcfcf" stroke="#cfcfcf" stroke-width="1.51"/>
    <path d="M1301,550L1146,475L1043,691Z" fill="#d6d6d6" stroke="#d6d6d6" stroke-width="1.51"/>
    <path d="M484,676L467,868L717,835Z" fill="#d0d0d0" stroke="#d0d0d0" stroke-width="1.51"/>
    <path d="M1270,1245L1538,1157L1253,1029Z" fill="#dddddd" stroke="#dddddd" stroke-width="1.51"/>
    <path d="M1368,1467L1476,1264L1270,1245Z" fill="#d0d0d0" stroke="#d0d0d0" stroke-width="1.51"/>
    <path d="M1368,1467L1270,1245L1147,1351Z" fill="#d5d5d5" stroke="#d5d5d5" stroke-width="1.51"/>
    <path d="M1476,1264L1538,1157L1270,1245Z" fill="#d3d3d3" stroke="#d3d3d3" stroke-width="1.51"/>
    <path d="M957,1457L1161,1530L1147,1351Z" fill="#dbdbdb" stroke="#dbdbdb" stroke-width="1.51"/>
    <path d="M1078,1728L1161,1530L957,1457Z" fill="#d3d3d3" stroke="#d3d3d3" stroke-width="1.51"/>
    <path d="M362,1264L486,1259L537,1072Z" fill="#cccccc" stroke="#cccccc" stroke-width="1.51"/>
    <path d="M537,1072L486,1259L648,1033Z" fill="#d7d7d7" stroke="#d7d7d7" stroke-width="1.51"/>
    <path d="M702,645L484,676L717,835Z" fill="#d1d1d1" stroke="#d1d1d1" stroke-width="1.51"/>
    <path d="M884,553L635,506L702,645Z" fill="#cecece" stroke="#cecece" stroke-width="1.51"/>
    <path d="M670,287L635,506L884,553Z" fill="#c5c5c5" stroke="#c5c5c5" stroke-width="1.51"/>
    <path d="M548,543L484,676L702,645Z" fill="#c6c6c6" stroke="#c6c6c6" stroke-width="1.51"/>
    <path d="M544,1522L686,1494L699,1368Z" fill="#c6c6c6" stroke="#c6c6c6" stroke-width="1.51"/>
    <path d="M699,1368L686,1494L957,1457Z" fill="#d2d2d2" stroke="#d2d2d2" stroke-width="1.51"/>
    <path d="M1465,865L1548,718L1264,763Z" fill="#d3d3d3" stroke="#d3d3d3" stroke-width="1.51"/>
    <path d="M1669,870L1548,718L1465,865Z" fill="#cccccc" stroke="#cccccc" stroke-width="1.51"/>
    <path d="M1688,1367L1764,1116L1538,1157Z" fill="#c4c4c4" stroke="#c4c4c4" stroke-width="1.51"/>
    <path d="M1161,1530L1368,1467L1147,1351Z" fill="#d1d1d1" stroke="#d1d1d1" stroke-width="1.51"/>
    <path d="M635,506L548,543L702,645Z" fill="#c6c6c6" stroke="#c6c6c6" stroke-width="1.51"/>
    <path d="M1548,718L1436,489L1301,550Z" fill="#c5c5c5" stroke="#c5c5c5" stroke-width="1.51"/>
    <path d="M1301,550L1317,266L1146,475Z" fill="#c5c5c5" stroke="#c5c5c5" stroke-width="1.51"/>
    <path d="M1146,475L926,321L884,553Z" fill="#d7d7d7" stroke="#d7d7d7" stroke-width="1.51"/>
    <path d="M635,506L498,297L548,543Z" fill="#b9b9b9" stroke="#b9b9b9" stroke-width="1.51"/>
    <path d="M1125,265L926,321L1146,475Z" fill="#cdcdcd" stroke="#cdcdcd" stroke-width="1.51"/>
    <path d="M1538,1157L1669,870L1465,865Z" fill="#d6d6d6" stroke="#d6d6d6" stroke-width="1.51"/>
    <path d="M1748,432L1510,349L1436,489Z" fill="#b0b0b0" stroke="#b0b0b0" stroke-width="1.51"/>
    <path d="M1368,1467L1483,1475L1476,1264Z" fill="#c6c6c6" stroke="#c6c6c6" stroke-width="1.51"/>
    <path d="M1538,1157L1764,1116L1669,870Z" fill="#cfcfcf" stroke="#cfcfcf" stroke-width="1.51"/>
    <path d="M1360,1655L1483,1475L1368,1467Z" fill="#c0c0c0" stroke="#c0c0c0" stroke-width="1.51"/>
    <path d="M486,1259L544,1522L699,1368Z" fill="#c7c7c7" stroke="#c7c7c7" stroke-width="1.51"/>
    <path d="M286,1053L362,1264L537,1072Z" fill="#cbcbcb" stroke="#cbcbcb" stroke-width="1.51"/>
    <path d="M286,1053L537,1072L467,868Z" fill="#d6d6d6" stroke="#d6d6d6" stroke-width="1.51"/>
    <path d="M362,1264L544,1522L486,1259Z" fill="#c2c2c2" stroke="#c2c2c2" stroke-width="1.51"/>
    <path d="M686,1494L885,1713L957,1457Z" fill="#cecece" stroke="#cecece" stroke-width="1.51"/>
    <path d="M269,936L286,1053L467,868Z" fill="#cdcdcd" stroke="#cdcdcd" stroke-width="1.51"/>
    <path d="M269,936L467,868L299,645Z" fill="#c4c4c4" stroke="#c4c4c4" stroke-width="1.51"/>
    <path d="M1317,266L1125,265L1146,475Z" fill="#c3c3c3" stroke="#c3c3c3" stroke-width="1.51"/>
    <path d="M299,645L467,868L484,676Z" fill="#c3c3c3" stroke="#c3c3c3" stroke-width="1.51"/>
    <path d="M660,1641L885,1713L686,1494Z" fill="#c3c3c3" stroke="#c3c3c3" stroke-width="1.51"/>
    <path d="M1161,1530L1360,1655L1368,1467Z" fill="#c6c6c6" stroke="#c6c6c6" stroke-width="1.51"/>
    <path d="M544,1522L660,1641L686,1494Z" fill="#c0c0c0" stroke="#c0c0c0" stroke-width="1.51"/>
    <path d="M885,1713L1078,1728L957,1457Z" fill="#d2d2d2" stroke="#d2d2d2" stroke-width="1.51"/>
    <path d="M1078,1728L1360,1655L1161,1530Z" fill="#c7c7c7" stroke="#c7c7c7" stroke-width="1.51"/>
    <path d="M926,321L670,287L884,553Z" fill="#c8c8c8" stroke="#c8c8c8" stroke-width="1.51"/>
    <path d="M548,543L299,645L484,676Z" fill="#bdbdbd" stroke="#bdbdbd" stroke-width="1.51"/>
    <path d="M951,71L670,287L926,321Z" fill="#bfbfbf" stroke="#bfbfbf" stroke-width="1.51"/>
    <path d="M1688,1367L1538,1157L1476,1264Z" fill="#c7c7c7" stroke="#c7c7c7" stroke-width="1.51"/>
    <path d="M1688,1367L1476,1264L1483,1475Z" fill="#c1c1c1" stroke="#c1c1c1" stroke-width="1.51"/>
    <path d="M267,564L299,645L548,543Z" fill="#b5b5b5" stroke="#b5b5b5" stroke-width="1.51"/>
    <path d="M1510,349L1317,266L1436,489Z" fill="#b6b6b6" stroke="#b6b6b6" stroke-width="1.51"/>
    <path d="M1436,489L1317,266L1301,550Z" fill="#bfbfbf" stroke="#bfbfbf" stroke-width="1.51"/>
    <path d="M1665,1498L1688,1367L1483,1475Z" fill="#b8b8b8" stroke="#b8b8b8" stroke-width="1.51"/>
    <path d="M1669,870L1762,738L1548,718Z" fill="#c3c3c3" stroke="#c3c3c3" stroke-width="1.51"/>
    <path d="M1904,709L1762,738L1957,957Z" fill="#b8b8b8" stroke="#b8b8b8" stroke-width="1.51"/>
    <path d="M1748,432L1436,489L1548,718Z" fill="#b8b8b8" stroke="#b8b8b8" stroke-width="1.51"/>
    <path d="M1497,1927L1513,1633L1360,1655Z" fill="#afafaf" stroke="#afafaf" stroke-width="1.51"/>
    <path d="M1360,1655L1513,1633L1483,1475Z" fill="#b9b9b9" stroke="#b9b9b9" stroke-width="1.51"/>
    <path d="M269,936L169,955L286,1053Z" fill="#c9c9c9" stroke="#c9c9c9" stroke-width="1.51"/>
    <path d="M286,1053L110,1122L362,1264Z" fill="#c2c2c2" stroke="#c2c2c2" stroke-width="1.51"/>
    <path d="M121,686L169,955L269,936Z" fill="#bfbfbf" stroke="#bfbfbf" stroke-width="1.51"/>
    <path d="M1513,1633L1665,1498L1483,1475Z" fill="#b6b6b6" stroke="#b6b6b6" stroke-width="1.51"/>
    <path d="M1968,1164L1957,957L1764,1116Z" fill="#bebebe" stroke="#bebebe" stroke-width="1.51"/>
    <path d="M299,645L121,686L269,936Z" fill="#b9b9b9" stroke="#b9b9b9" stroke-width="1.51"/>
    <path d="M498,297L267,564L548,543Z" fill="#b2b2b2" stroke="#b2b2b2" stroke-width="1.51"/>
    <path d="M670,287L498,297L635,506Z" fill="#b6b6b6" stroke="#b6b6b6" stroke-width="1.51"/>
    <path d="M1078,1728L1110,1832L1360,1655Z" fill="#c1c1c1" stroke="#c1c1c1" stroke-width="1.51"/>
    <path d="M885,1713L1110,1832L1078,1728Z" fill="#cacaca" stroke="#cacaca" stroke-width="1.51"/>
    <path d="M848,1889L1110,1832L885,1713Z" fill="#c5c5c5" stroke="#c5c5c5" stroke-width="1.51"/>
    <path d="M1267,59L1043,101L1125,265Z" fill="#bcbcbc" stroke="#bcbcbc" stroke-width="1.51"/>
    <path d="M1125,265L1043,101L926,321Z" fill="#c8c8c8" stroke="#c8c8c8" stroke-width="1.51"/>
    <path d="M670,287L640,72L498,297Z" fill="#afafaf" stroke="#afafaf" stroke-width="1.51"/>
    <path d="M1267,59L1125,265L1317,266Z" fill="#b9b9b9" stroke="#b9b9b9" stroke-width="1.51"/>
    <path d="M169,955L110,1122L286,1053Z" fill="#c5c5c5" stroke="#c5c5c5" stroke-width="1.51"/>
    <path d="M362,1264L307,1564L544,1522Z" fill="#b7b7b7" stroke="#b7b7b7" stroke-width="1.51"/>
    <path d="M544,1522L501,1759L660,1641Z" fill="#b6b6b6" stroke="#b6b6b6" stroke-width="1.51"/>
    <path d="M-100,1031L110,1122L169,955Z" fill="#bfbfbf" stroke="#bfbfbf" stroke-width="1.51"/>
    <path d="M65,1288L307,1564L362,1264Z" fill="#b3b3b3" stroke="#b3b3b3" stroke-width="1.51"/>
    <path d="M694,1892L848,1889L885,1713Z" fill="#bbbbbb" stroke="#bbbbbb" stroke-width="1.51"/>
    <path d="M1043,101L951,71L926,321Z" fill="#c5c5c5" stroke="#c5c5c5" stroke-width="1.51"/>
    <path d="M694,1892L885,1713L660,1641Z" fill="#bbbbbb" stroke="#bbbbbb" stroke-width="1.51"/>
    <path d="M307,1564L501,1759L544,1522Z" fill="#afafaf" stroke="#afafaf" stroke-width="1.51"/>
    <path d="M1430,81L1267,59L1317,266Z" fill="#afafaf" stroke="#afafaf" stroke-width="1.51"/>
    <path d="M1762,738L1748,432L1548,718Z" fill="#b7b7b7" stroke="#b7b7b7" stroke-width="1.51"/>
    <path d="M267,564L121,686L299,645Z" fill="#b1b1b1" stroke="#b1b1b1" stroke-width="1.51"/>
    <path d="M151,472L121,686L267,564Z" fill="#ababab" stroke="#ababab" stroke-width="1.51"/>
    <path d="M1762,738L1944,566L1748,432Z" fill="#acacac" stroke="#acacac" stroke-width="1.51"/>
    <path d="M1957,957L1762,738L1669,870Z" fill="#c0c0c0" stroke="#c0c0c0" stroke-width="1.51"/>
    <path d="M1957,957L1669,870L1764,1116Z" fill="#c8c8c8" stroke="#c8c8c8" stroke-width="1.51"/>
    <path d="M1968,1164L1764,1116L1949,1354Z" fill="#b6b6b6" stroke="#b6b6b6" stroke-width="1.51"/>
    <path d="M1430,81L1317,266L1510,349Z" fill="#afafaf" stroke="#afafaf" stroke-width="1.51"/>
    <path d="M1164,-115L849,-69L951,71Z" fill="#bdbdbd" stroke="#bdbdbd" stroke-width="1.51"/>
    <path d="M501,1759L694,1892L660,1641Z" fill="#b2b2b2" stroke="#b2b2b2" stroke-width="1.51"/>
    <path d="M1665,1498L1847,1465L1688,1367Z" fill="#b0b0b0" stroke="#b0b0b0" stroke-width="1.51"/>
    <path d="M1762,1699L1847,1465L1665,1498Z" fill="#a8a8a8" stroke="#a8a8a8" stroke-width="1.51"/>
    <path d="M304,236L151,472L267,564Z" fill="#a4a4a4" stroke="#a4a4a4" stroke-width="1.51"/>
    <path d="M951,71L640,72L670,287Z" fill="#b5b5b5" stroke="#b5b5b5" stroke-width="1.51"/>
    <path d="M849,-69L640,72L951,71Z" fill="#b3b3b3" stroke="#b3b3b3" stroke-width="1.51"/>
    <path d="M1949,1354L1764,1116L1688,1367Z" fill="#b7b7b7" stroke="#b7b7b7" stroke-width="1.51"/>
    <path d="M110,1122L65,1288L362,1264Z" fill="#b9b9b9" stroke="#b9b9b9" stroke-width="1.51"/>
    <path d="M-100,1031L65,1288L110,1122Z" fill="#b7b7b7" stroke="#b7b7b7" stroke-width="1.51"/>
    <path d="M304,236L267,564L498,297Z" fill="#a6a6a6" stroke="#a6a6a6" stroke-width="1.51"/>
    <path d="M1722,258L1430,81L1510,349Z" fill="#a6a6a6" stroke="#a6a6a6" stroke-width="1.51"/>
    <path d="M307,1564L242,1637L501,1759Z" fill="#a6a6a6" stroke="#a6a6a6" stroke-width="1.51"/>
    <path d="M501,1759L516,1937L694,1892Z" fill="#a8a8a8" stroke="#a8a8a8" stroke-width="1.51"/>
    <path d="M58,1522L242,1637L307,1564Z" fill="#a3a3a3" stroke="#a3a3a3" stroke-width="1.51"/>
    <path d="M1847,1465L1949,1354L1688,1367Z" fill="#aeaeae" stroke="#aeaeae" stroke-width="1.51"/>
    <path d="M356,68L304,236L498,297Z" fill="#9f9f9f" stroke="#9f9f9f" stroke-width="1.51"/>
    <path d="M1748,432L1722,258L1510,349Z" fill="#a5a5a5" stroke="#a5a5a5" stroke-width="1.51"/>
    <path d="M1856,349L1722,258L1748,432Z" fill="#9e9e9e" stroke="#9e9e9e" stroke-width="1.51"/>
    <path d="M2043,832L1904,709L1957,957Z" fill="#b4b4b4" stroke="#b4b4b4" stroke-width="1.51"/>
    <path d="M2147,705L1944,566L1904,709Z" fill="#a7a7a7" stroke="#a7a7a7" stroke-width="1.51"/>
    <path d="M1904,709L1944,566L1762,738Z" fill="#aeaeae" stroke="#aeaeae" stroke-width="1.51"/>
    <path d="M2111,1570L2083,1323L1949,1354Z" fill="#a0a0a0" stroke="#a0a0a0" stroke-width="1.51"/>
    <path d="M1513,1633L1762,1699L1665,1498Z" fill="#ababab" stroke="#ababab" stroke-width="1.51"/>
    <path d="M1631,1925L1762,1699L1513,1633Z" fill="#a3a3a3" stroke="#a3a3a3" stroke-width="1.51"/>
    <path d="M1370,1963L1360,1655L1110,1832Z" fill="#b6b6b6" stroke="#b6b6b6" stroke-width="1.51"/>
    <path d="M1256,2035L1370,1963L1110,1832Z" fill="#b1b1b1" stroke="#b1b1b1" stroke-width="1.51"/>
    <path d="M1256,2035L1110,1832L1075,2123Z" fill="#b4b4b4" stroke="#b4b4b4" stroke-width="1.51"/>
    <path d="M2126,1099L2043,832L1957,957Z" fill="#b8b8b8" stroke="#b8b8b8" stroke-width="1.51"/>
    <path d="M2126,1099L1957,957L1968,1164Z" fill="#b8b8b8" stroke="#b8b8b8" stroke-width="1.51"/>
    <path d="M1164,-115L1043,101L1267,59Z" fill="#b6b6b6" stroke="#b6b6b6" stroke-width="1.51"/>
    <path d="M1164,-115L951,71L1043,101Z" fill="#bdbdbd" stroke="#bdbdbd" stroke-width="1.51"/>
    <path d="M640,72L478,45L498,297Z" fill="#a6a6a6" stroke="#a6a6a6" stroke-width="1.51"/>
    <path d="M1944,566L1856,349L1748,432Z" fill="#a1a1a1" stroke="#a1a1a1" stroke-width="1.51"/>
    <path d="M1370,1963L1497,1927L1360,1655Z" fill="#acacac" stroke="#acacac" stroke-width="1.51"/>
    <path d="M765,2121L860,2103L848,1889Z" fill="#afafaf" stroke="#afafaf" stroke-width="1.51"/>
    <path d="M305,1953L516,1937L501,1759Z" fill="#9f9f9f" stroke="#9f9f9f" stroke-width="1.51"/>
    <path d="M516,-70L478,45L640,72Z" fill="#a2a2a2" stroke="#a2a2a2" stroke-width="1.51"/>
    <path d="M242,1637L305,1953L501,1759Z" fill="#9e9e9e" stroke="#9e9e9e" stroke-width="1.51"/>
    <path d="M58,1522L169,1671L242,1637Z" fill="#9f9f9f" stroke="#9f9f9f" stroke-width="1.51"/>
    <path d="M1370,1963L1476,2085L1497,1927Z" fill="#a1a1a1" stroke="#a1a1a1" stroke-width="1.51"/>
    <path d="M1075,2123L1110,1832L848,1889Z" fill="#bfbfbf" stroke="#bfbfbf" stroke-width="1.51"/>
    <path d="M65,1288L58,1522L307,1564Z" fill="#a8a8a8" stroke="#a8a8a8" stroke-width="1.51"/>
    <path d="M121,686L-67,756L169,955Z" fill="#b5b5b5" stroke="#b5b5b5" stroke-width="1.51"/>
    <path d="M65,1288L-103,1510L58,1522Z" fill="#a3a3a3" stroke="#a3a3a3" stroke-width="1.51"/>
    <path d="M-133,527L-67,756L121,686Z" fill="#a7a7a7" stroke="#a7a7a7" stroke-width="1.51"/>
    <path d="M-133,527L121,686L151,472Z" fill="#a4a4a4" stroke="#a4a4a4" stroke-width="1.51"/>
    <path d="M-125,873L-100,1031L169,955Z" fill="#bbbbbb" stroke="#bbbbbb" stroke-width="1.51"/>
    <path d="M1249,-126L1267,59L1463,-75Z" fill="#a8a8a8" stroke="#a8a8a8" stroke-width="1.51"/>
    <path d="M1249,-126L1164,-115L1267,59Z" fill="#aeaeae" stroke="#aeaeae" stroke-width="1.51"/>
    <path d="M304,236L135,281L151,472Z" fill="#9b9b9b" stroke="#9b9b9b" stroke-width="1.51"/>
    <path d="M70,123L135,281L304,236Z" fill="#949494" stroke="#949494" stroke-width="1.51"/>
    <path d="M478,45L356,68L498,297Z" fill="#a0a0a0" stroke="#a0a0a0" stroke-width="1.51"/>
    <path d="M516,-70L356,68L478,45Z" fill="#9b9b9b" stroke="#9b9b9b" stroke-width="1.51"/>
    <path d="M765,2121L848,1889L694,1892Z" fill="#afafaf" stroke="#afafaf" stroke-width="1.51"/>
    <path d="M2083,1323L2126,1099L1968,1164Z" fill="#adadad" stroke="#adadad" stroke-width="1.51"/>
    <path d="M2083,1323L1968,1164L1949,1354Z" fill="#ababab" stroke="#ababab" stroke-width="1.51"/>
    <path d="M-67,756L-125,873L169,955Z" fill="#b6b6b6" stroke="#b6b6b6" stroke-width="1.51"/>
    <path d="M-292,715L-125,873L-67,756Z" fill="#a9a9a9" stroke="#a9a9a9" stroke-width="1.51"/>
    <path d="M1476,2085L1631,1925L1497,1927Z" fill="#9c9c9c" stroke="#9c9c9c" stroke-width="1.51"/>
    <path d="M1497,1927L1631,1925L1513,1633Z" fill="#a4a4a4" stroke="#a4a4a4" stroke-width="1.51"/>
    <path d="M2111,1570L1949,1354L1847,1465Z" fill="#a1a1a1" stroke="#a1a1a1" stroke-width="1.51"/>
    <path d="M1954,1707L1847,1465L1762,1699Z" fill="#9e9e9e" stroke="#9e9e9e" stroke-width="1.51"/>
    <path d="M1463,-75L1267,59L1430,81Z" fill="#a7a7a7" stroke="#a7a7a7" stroke-width="1.51"/>
    <path d="M1676,50L1430,81L1722,258Z" fill="#9e9e9e" stroke="#9e9e9e" stroke-width="1.51"/>
    <path d="M860,2103L1075,2123L848,1889Z" fill="#b6b6b6" stroke="#b6b6b6" stroke-width="1.51"/>
    <path d="M1256,2035L1476,2085L1370,1963Z" fill="#a4a4a4" stroke="#a4a4a4" stroke-width="1.51"/>
    <path d="M1969,99L1676,50L1722,258Z" fill="#939393" stroke="#939393" stroke-width="1.51"/>
    <path d="M1676,50L1463,-75L1430,81Z" fill="#9f9f9f" stroke="#9f9f9f" stroke-width="1.51"/>
    <path d="M747,-171L849,-69L893,-239Z" fill="#acacac" stroke="#acacac" stroke-width="1.51"/>
    <path d="M747,-171L640,72L849,-69Z" fill="#ababab" stroke="#ababab" stroke-width="1.51"/>
    <path d="M747,-171L516,-70L640,72Z" fill="#a4a4a4" stroke="#a4a4a4" stroke-width="1.51"/>
    <path d="M516,1937L765,2121L694,1892Z" fill="#a7a7a7" stroke="#a7a7a7" stroke-width="1.51"/>
    <path d="M860,2103L1099,2267L1075,2123Z" fill="#b2b2b2" stroke="#b2b2b2" stroke-width="1.51"/>
    <path d="M2043,832L2147,705L1904,709Z" fill="#aaaaaa" stroke="#aaaaaa" stroke-width="1.51"/>
    <path d="M1944,566L2115,511L1856,349Z" fill="#9c9c9c" stroke="#9c9c9c" stroke-width="1.51"/>
    <path d="M1856,349L1969,99L1722,258Z" fill="#949494" stroke="#949494" stroke-width="1.51"/>
    <path d="M2363,924L2147,705L2043,832Z" fill="#a6a6a6" stroke="#a6a6a6" stroke-width="1.51"/>
    <path d="M893,-239L849,-69L1058,-262Z" fill="#b2b2b2" stroke="#b2b2b2" stroke-width="1.51"/>
    <path d="M516,1937L472,2097L765,2121Z" fill="#9e9e9e" stroke="#9e9e9e" stroke-width="1.51"/>
    <path d="M169,1671L305,1953L242,1637Z" fill="#9a9a9a" stroke="#9a9a9a" stroke-width="1.51"/>
    <path d="M103,1953L305,1953L169,1671Z" fill="#929292" stroke="#929292" stroke-width="1.51"/>
    <path d="M1941,1840L1954,1707L1762,1699Z" fill="#949494" stroke="#949494" stroke-width="1.51"/>
    <path d="M1631,1925L1941,1840L1762,1699Z" fill="#969696" stroke="#969696" stroke-width="1.51"/>
    <path d="M1254,2268L1476,2085L1256,2035Z" fill="#a0a0a0" stroke="#a0a0a0" stroke-width="1.51"/>
    <path d="M2147,705L2115,511L1944,566Z" fill="#9e9e9e" stroke="#9e9e9e" stroke-width="1.51"/>
    <path d="M-65,317L-133,527L151,472Z" fill="#999999" stroke="#999999" stroke-width="1.51"/>
    <path d="M-65,317L151,472L135,281Z" fill="#989898" stroke="#989898" stroke-width="1.51"/>
    <path d="M58,1522L-61,1673L169,1671Z" fill="#9a9a9a" stroke="#9a9a9a" stroke-width="1.51"/>
    <path d="M-168,1362L-103,1510L65,1288Z" fill="#a3a3a3" stroke="#a3a3a3" stroke-width="1.51"/>
    <path d="M-168,1362L65,1288L-236,1159Z" fill="#a8a8a8" stroke="#a8a8a8" stroke-width="1.51"/>
    <path d="M1058,-262L849,-69L1164,-115Z" fill="#b7b7b7" stroke="#b7b7b7" stroke-width="1.51"/>
    <path d="M461,-269L251,-139L516,-70Z" fill="#919191" stroke="#919191" stroke-width="1.51"/>
    <path d="M1058,-262L1164,-115L1249,-126Z" fill="#adadad" stroke="#adadad" stroke-width="1.51"/>
    <path d="M-236,1159L65,1288L-100,1031Z" fill="#b0b0b0" stroke="#b0b0b0" stroke-width="1.51"/>
    <path d="M-236,1159L-100,1031L-256,961Z" fill="#b3b3b3" stroke="#b3b3b3" stroke-width="1.51"/>
    <path d="M329,2043L472,2097L516,1937Z" fill="#979797" stroke="#979797" stroke-width="1.51"/>
    <path d="M1348,-302L1058,-262L1249,-126Z" fill="#a6a6a6" stroke="#a6a6a6" stroke-width="1.51"/>
    <path d="M2126,1099L2363,924L2043,832Z" fill="#afafaf" stroke="#afafaf" stroke-width="1.51"/>
    <path d="M2273,500L2125,341L2115,511Z" fill="#8f8f8f" stroke="#8f8f8f" stroke-width="1.51"/>
    <path d="M2278,1275L2243,1103L2126,1099Z" fill="#a6a6a6" stroke="#a6a6a6" stroke-width="1.51"/>
    <path d="M2278,1275L2126,1099L2083,1323Z" fill="#a4a4a4" stroke="#a4a4a4" stroke-width="1.51"/>
    <path d="M-256,961L-100,1031L-125,873Z" fill="#b5b5b5" stroke="#b5b5b5" stroke-width="1.51"/>
    <path d="M1954,1707L2111,1570L1847,1465Z" fill="#9a9a9a" stroke="#9a9a9a" stroke-width="1.51"/>
    <path d="M305,1953L329,2043L516,1937Z" fill="#959595" stroke="#959595" stroke-width="1.51"/>
    <path d="M103,1953L329,2043L305,1953Z" fill="#8d8d8d" stroke="#8d8d8d" stroke-width="1.51"/>
    <path d="M70,123L304,236L356,68Z" fill="#949494" stroke="#949494" stroke-width="1.51"/>
    <path d="M70,123L-65,317L135,281Z" fill="#909090" stroke="#909090" stroke-width="1.51"/>
    <path d="M-292,715L-256,961L-125,873Z" fill="#aaaaaa" stroke="#aaaaaa" stroke-width="1.51"/>
    <path d="M251,-139L356,68L516,-70Z" fill="#939393" stroke="#939393" stroke-width="1.51"/>
    <path d="M159,-87L70,123L356,68Z" fill="#8d8d8d" stroke="#8d8d8d" stroke-width="1.51"/>
    <path d="M-103,1510L-61,1673L58,1522Z" fill="#999999" stroke="#999999" stroke-width="1.51"/>
    <path d="M-337,1665L-61,1673L-103,1510Z" fill="#919191" stroke="#919191" stroke-width="1.51"/>
    <path d="M1954,1707L2054,1748L2111,1570Z" fill="#909090" stroke="#909090" stroke-width="1.51"/>
    <path d="M1947,2031L1941,1840L1631,1925Z" fill="#8c8c8c" stroke="#8c8c8c" stroke-width="1.51"/>
    <path d="M1075,2123L1254,2268L1256,2035Z" fill="#a8a8a8" stroke="#a8a8a8" stroke-width="1.51"/>
    <path d="M942,2369L1099,2267L860,2103Z" fill="#acacac" stroke="#acacac" stroke-width="1.51"/>
    <path d="M942,2369L860,2103L765,2121Z" fill="#a8a8a8" stroke="#a8a8a8" stroke-width="1.51"/>
    <path d="M2115,511L2125,341L1856,349Z" fill="#939393" stroke="#939393" stroke-width="1.51"/>
    <path d="M2273,500L2115,511L2147,705Z" fill="#969696" stroke="#969696" stroke-width="1.51"/>
    <path d="M1941,1840L2054,1748L1954,1707Z" fill="#8d8d8d" stroke="#8d8d8d" stroke-width="1.51"/>
    <path d="M2322,635L2273,500L2147,705Z" fill="#949494" stroke="#949494" stroke-width="1.51"/>
    <path d="M2238,1545L2278,1275L2083,1323Z" fill="#999999" stroke="#999999" stroke-width="1.51"/>
    <path d="M2238,1545L2083,1323L2111,1570Z" fill="#969696" stroke="#969696" stroke-width="1.51"/>
    <path d="M2125,341L1969,99L1856,349Z" fill="#8e8e8e" stroke="#8e8e8e" stroke-width="1.51"/>
    <path d="M1445,-356L1348,-302L1463,-75Z" fill="#999999" stroke="#999999" stroke-width="1.51"/>
    <path d="M1463,-75L1348,-302L1249,-126Z" fill="#a1a1a1" stroke="#a1a1a1" stroke-width="1.51"/>
    <path d="M1476,2085L1665,2157L1631,1925Z" fill="#949494" stroke="#949494" stroke-width="1.51"/>
    <path d="M1099,2267L1254,2268L1075,2123Z" fill="#a7a7a7" stroke="#a7a7a7" stroke-width="1.51"/>
    <path d="M-364,1316L-168,1362L-236,1159Z" fill="#a1a1a1" stroke="#a1a1a1" stroke-width="1.51"/>
    <path d="M-133,527L-292,715L-67,756Z" fill="#a1a1a1" stroke="#a1a1a1" stroke-width="1.51"/>
    <path d="M-332,451L-292,715L-133,527Z" fill="#969696" stroke="#969696" stroke-width="1.51"/>
    <path d="M-61,1673L103,1953L169,1671Z" fill="#919191" stroke="#919191" stroke-width="1.51"/>
    <path d="M1674,-168L1463,-75L1676,50Z" fill="#969696" stroke="#969696" stroke-width="1.51"/>
    <path d="M1946,-152L1674,-168L1676,50Z" fill="#8a8a8a" stroke="#8a8a8a" stroke-width="1.51"/>
    <path d="M461,-269L516,-70L747,-171Z" fill="#9b9b9b" stroke="#9b9b9b" stroke-width="1.51"/>
    <path d="M70,123L-43,116L-65,317Z" fill="#8b8b8b" stroke="#8b8b8b" stroke-width="1.51"/>
    <path d="M1565,2270L1665,2157L1476,2085Z" fill="#8f8f8f" stroke="#8f8f8f" stroke-width="1.51"/>
    <path d="M1941,1840L2116,1840L2054,1748Z" fill="#888888" stroke="#888888" stroke-width="1.51"/>
    <path d="M-292,286L-332,451L-133,527Z" fill="#8d8d8d" stroke="#8d8d8d" stroke-width="1.51"/>
    <path d="M-71,-86L-43,116L70,123Z" fill="#858585" stroke="#858585" stroke-width="1.51"/>
    <path d="M2315,1720L2238,1545L2111,1570Z" fill="#898989" stroke="#898989" stroke-width="1.51"/>
    <path d="M2363,924L2126,1099L2243,1103Z" fill="#acacac" stroke="#acacac" stroke-width="1.51"/>
    <path d="M2125,341L2078,50L1969,99Z" fill="#858585" stroke="#858585" stroke-width="1.51"/>
    <path d="M251,-139L159,-87L356,68Z" fill="#8c8c8c" stroke="#8c8c8c" stroke-width="1.51"/>
    <path d="M1445,-356L680,-341L1058,-262Z" fill="#adadad" stroke="#adadad" stroke-width="1.51"/>
    <path d="M1058,-262L680,-341L893,-239Z" fill="#aaaaaa" stroke="#aaaaaa" stroke-width="1.51"/>
    <path d="M893,-239L680,-341L747,-171Z" fill="#a5a5a5" stroke="#a5a5a5" stroke-width="1.51"/>
    <path d="M680,-341L461,-269L747,-171Z" fill="#9b9b9b" stroke="#9b9b9b" stroke-width="1.51"/>
    <path d="M251,-139L121,-287L159,-87Z" fill="#838383" stroke="#838383" stroke-width="1.51"/>
    <path d="M2315,1720L2363,924L2278,1275Z" fill="#979797" stroke="#979797" stroke-width="1.51"/>
    <path d="M2278,1275L2363,924L2243,1103Z" fill="#a5a5a5" stroke="#a5a5a5" stroke-width="1.51"/>
    <path d="M2363,924L2322,635L2147,705Z" fill="#9c9c9c" stroke="#9c9c9c" stroke-width="1.51"/>
    <path d="M472,2097L646,2308L765,2121Z" fill="#9a9a9a" stroke="#9a9a9a" stroke-width="1.51"/>
    <path d="M1099,2267L942,2369L1254,2268Z" fill="#a4a4a4" stroke="#a4a4a4" stroke-width="1.51"/>
    <path d="M438,2279L646,2308L472,2097Z" fill="#8f8f8f" stroke="#8f8f8f" stroke-width="1.51"/>
    <path d="M438,2279L472,2097L351,2266Z" fill="#8a8a8a" stroke="#8a8a8a" stroke-width="1.51"/>
    <path d="M646,2308L942,2369L765,2121Z" fill="#9f9f9f" stroke="#9f9f9f" stroke-width="1.51"/>
    <path d="M1254,2268L1565,2270L1476,2085Z" fill="#969696" stroke="#969696" stroke-width="1.51"/>
    <path d="M-168,1362L-305,1464L-103,1510Z" fill="#9a9a9a" stroke="#9a9a9a" stroke-width="1.51"/>
    <path d="M-136,1950L63,2051L103,1953Z" fill="#828282" stroke="#828282" stroke-width="1.51"/>
    <path d="M-364,1316L-305,1464L-168,1362Z" fill="#9a9a9a" stroke="#9a9a9a" stroke-width="1.51"/>
    <path d="M-364,1316L-236,1159L-256,961Z" fill="#a9a9a9" stroke="#a9a9a9" stroke-width="1.51"/>
    <path d="M-292,715L-364,1316L-256,961Z" fill="#b1b1b1" stroke="#b1b1b1" stroke-width="1.51"/>
    <path d="M1762,2334L1565,2270L1254,2268Z" fill="#8b8b8b" stroke="#8b8b8b" stroke-width="1.51"/>
    <path d="M1947,2031L2116,1840L1941,1840Z" fill="#848484" stroke="#848484" stroke-width="1.51"/>
    <path d="M1947,2031L1631,1925L1665,2157Z" fill="#8b8b8b" stroke="#8b8b8b" stroke-width="1.51"/>
    <path d="M2054,1748L2315,1720L2111,1570Z" fill="#898989" stroke="#898989" stroke-width="1.51"/>
    <path d="M1348,-302L1445,-356L1058,-262Z" fill="#9f9f9f" stroke="#9f9f9f" stroke-width="1.51"/>
    <path d="M1674,-168L1445,-356L1463,-75Z" fill="#949494" stroke="#949494" stroke-width="1.51"/>
    <path d="M1911,2305L1947,2031L1665,2157Z" fill="#7f7f7f" stroke="#7f7f7f" stroke-width="1.51"/>
    <path d="M646,2308L150,2357L942,2369Z" fill="#8d8d8d" stroke="#8d8d8d" stroke-width="1.51"/>
    <path d="M351,2266L472,2097L329,2043Z" fill="#8c8c8c" stroke="#8c8c8c" stroke-width="1.51"/>
    <path d="M103,1953L63,2051L329,2043Z" fill="#888888" stroke="#888888" stroke-width="1.51"/>
    <path d="M-136,1950L103,1953L-61,1673Z" fill="#888888" stroke="#888888" stroke-width="1.51"/>
    <path d="M1969,99L1946,-152L1676,50Z" fill="#898989" stroke="#898989" stroke-width="1.51"/>
    <path d="M1674,-168L1762,-307L1445,-356Z" fill="#8a8a8a" stroke="#8a8a8a" stroke-width="1.51"/>
    <path d="M2283,88L2078,50L2125,341Z" fill="#7f7f7f" stroke="#7f7f7f" stroke-width="1.51"/>
    <path d="M-292,715L-332,451L-364,1316Z" fill="#a4a4a4" stroke="#a4a4a4" stroke-width="1.51"/>
    <path d="M-292,286L-133,527L-65,317Z" fill="#8e8e8e" stroke="#8e8e8e" stroke-width="1.51"/>
    <path d="M438,2279L150,2357L646,2308Z" fill="#848484" stroke="#848484" stroke-width="1.51"/>
    <path d="M63,2051L351,2266L329,2043Z" fill="#858585" stroke="#858585" stroke-width="1.51"/>
    <path d="M680,-341L305,-282L461,-269Z" fill="#8f8f8f" stroke="#8f8f8f" stroke-width="1.51"/>
    <path d="M461,-269L305,-282L251,-139Z" fill="#898989" stroke="#898989" stroke-width="1.51"/>
    <path d="M-361,155L-292,286L-43,116Z" fill="#818181" stroke="#818181" stroke-width="1.51"/>
    <path d="M-43,116L-292,286L-65,317Z" fill="#888888" stroke="#888888" stroke-width="1.51"/>
    <path d="M-71,-86L70,123L159,-87Z" fill="#858585" stroke="#858585" stroke-width="1.51"/>
    <path d="M2078,50L1946,-152L1969,99Z" fill="#818181" stroke="#818181" stroke-width="1.51"/>
    <path d="M63,2051L150,2357L351,2266Z" fill="#7d7d7d" stroke="#7d7d7d" stroke-width="1.51"/>
    <path d="M-337,1665L-136,1950L-61,1673Z" fill="#878787" stroke="#878787" stroke-width="1.51"/>
    <path d="M-337,1665L-103,1510L-305,1464Z" fill="#919191" stroke="#919191" stroke-width="1.51"/>
    <path d="M1946,-152L1762,-307L1674,-168Z" fill="#848484" stroke="#848484" stroke-width="1.51"/>
    <path d="M-364,1316L-337,1665L-305,1464Z" fill="#919191" stroke="#919191" stroke-width="1.51"/>
    <path d="M2237,1964L2315,1720L2116,1840Z" fill="#7c7c7c" stroke="#7c7c7c" stroke-width="1.51"/>
    <path d="M2116,1840L2315,1720L2054,1748Z" fill="#848484" stroke="#848484" stroke-width="1.51"/>
    <path d="M2238,1545L2315,1720L2278,1275Z" fill="#8c8c8c" stroke="#8c8c8c" stroke-width="1.51"/>
    <path d="M121,-287L-71,-86L159,-87Z" fill="#7f7f7f" stroke="#7f7f7f" stroke-width="1.51"/>
    <path d="M2363,924L2344,274L2322,635Z" fill="#8f8f8f" stroke="#8f8f8f" stroke-width="1.51"/>
    <path d="M2322,635L2344,274L2273,500Z" fill="#888888" stroke="#888888" stroke-width="1.51"/>
    <path d="M2273,500L2344,274L2125,341Z" fill="#858585" stroke="#858585" stroke-width="1.51"/>
    <path d="M2078,50L2145,-81L1946,-152Z" fill="#7b7b7b" stroke="#7b7b7b" stroke-width="1.51"/>
    <path d="M-346,2111L-108,2048L-136,1950Z" fill="#767676" stroke="#767676" stroke-width="1.51"/>
    <path d="M-136,1950L-108,2048L63,2051Z" fill="#7e7e7e" stroke="#7e7e7e" stroke-width="1.51"/>
    <path d="M305,-282L121,-287L251,-139Z" fill="#838383" stroke="#838383" stroke-width="1.51"/>
    <path d="M680,-341L121,-287L305,-282Z" fill="#878787" stroke="#878787" stroke-width="1.51"/>
    <path d="M1565,2270L1762,2334L1665,2157Z" fill="#858585" stroke="#858585" stroke-width="1.51"/>
    <path d="M1947,2031L2237,1964L2116,1840Z" fill="#7d7d7d" stroke="#7d7d7d" stroke-width="1.51"/>
    <path d="M942,2369L1762,2334L1254,2268Z" fill="#969696" stroke="#969696" stroke-width="1.51"/>
    <path d="M2283,88L2145,-81L2078,50Z" fill="#797979" stroke="#797979" stroke-width="1.51"/>
    <path d="M1946,-152L1936,-296L1762,-307Z" fill="#7d7d7d" stroke="#7d7d7d" stroke-width="1.51"/>
    <path d="M2344,274L2283,88L2125,341Z" fill="#7e7e7e" stroke="#7e7e7e" stroke-width="1.51"/>
    <path d="M2147,2167L2237,1964L1947,2031Z" fill="#767676" stroke="#767676" stroke-width="1.51"/>
    <path d="M1762,-307L2088,-299L1445,-356Z" fill="#818181" stroke="#818181" stroke-width="1.51"/>
    <path d="M2088,-299L1936,-296L1946,-152Z" fill="#777777" stroke="#777777" stroke-width="1.51"/>
    <path d="M-71,-86L-361,155L-43,116Z" fill="#7f7f7f" stroke="#7f7f7f" stroke-width="1.51"/>
    <path d="M-292,286L-361,155L-332,451Z" fill="#828282" stroke="#828282" stroke-width="1.51"/>
    <path d="M-332,451L-361,155L-364,1316Z" fill="#979797" stroke="#979797" stroke-width="1.51"/>
    <path d="M-368,-94L-361,155L-71,-86Z" fill="#777777" stroke="#777777" stroke-width="1.51"/>
    <path d="M1762,2334L1911,2305L1665,2157Z" fill="#7d7d7d" stroke="#7d7d7d" stroke-width="1.51"/>
    <path d="M351,2266L150,2357L438,2279Z" fill="#7e7e7e" stroke="#7e7e7e" stroke-width="1.51"/>
    <path d="M-96,2268L150,2357L63,2051Z" fill="#777777" stroke="#777777" stroke-width="1.51"/>
    <path d="M-108,2048L-96,2268L63,2051Z" fill="#787878" stroke="#787878" stroke-width="1.51"/>
    <path d="M-337,1665L-355,1884L-136,1950Z" fill="#7f7f7f" stroke="#7f7f7f" stroke-width="1.51"/>
    <path d="M-364,1316L-355,1884L-337,1665Z" fill="#888888" stroke="#888888" stroke-width="1.51"/>
    <path d="M2099,2251L2147,2167L1947,2031Z" fill="#737373" stroke="#737373" stroke-width="1.51"/>
    <path d="M121,-287L-113,-260L-71,-86Z" fill="#797979" stroke="#797979" stroke-width="1.51"/>
    <path d="M2147,2167L2235,2114L2237,1964Z" fill="#6f6f6f" stroke="#6f6f6f" stroke-width="1.51"/>
    <path d="M2237,1964L2361,2266L2315,1720Z" fill="#6f6f6f" stroke="#6f6f6f" stroke-width="1.51"/>
    <path d="M2147,2167L2361,2266L2235,2114Z" fill="#676767" stroke="#676767" stroke-width="1.51"/>
    <path d="M1911,2305L2099,2251L1947,2031Z" fill="#757575" stroke="#757575" stroke-width="1.51"/>
    <path d="M2145,-81L2088,-299L1946,-152Z" fill="#767676" stroke="#767676" stroke-width="1.51"/>
    <path d="M1936,-296L2088,-299L1762,-307Z" fill="#787878" stroke="#787878" stroke-width="1.51"/>
    <path d="M2341,-154L2088,-299L2145,-81Z" fill="#6f6f6f" stroke="#6f6f6f" stroke-width="1.51"/>
    <path d="M-346,2111L-96,2268L-108,2048Z" fill="#717171" stroke="#717171" stroke-width="1.51"/>
    <path d="M-113,-260L-368,-94L-71,-86Z" fill="#747474" stroke="#747474" stroke-width="1.51"/>
    <path d="M-361,155L-368,-94L-364,1316Z" fill="#8a8a8a" stroke="#8a8a8a" stroke-width="1.51"/>
    <path d="M2283,88L2341,-154L2145,-81Z" fill="#717171" stroke="#717171" stroke-width="1.51"/>
    <path d="M2344,274L2341,-154L2283,88Z" fill="#727272" stroke="#727272" stroke-width="1.51"/>
    <path d="M2363,924L2341,-154L2344,274Z" fill="#7d7d7d" stroke="#7d7d7d" stroke-width="1.51"/>
    <path d="M-355,1884L-346,2111L-136,1950Z" fill="#767676" stroke="#767676" stroke-width="1.51"/>
    <path d="M-113,-260L-277,-335L-368,-94Z" fill="#6e6e6e" stroke="#6e6e6e" stroke-width="1.51"/>
    <path d="M121,-287L-277,-335L-113,-260Z" fill="#727272" stroke="#727272" stroke-width="1.51"/>
    <path d="M680,-341L-277,-335L121,-287Z" fill="#7d7d7d" stroke="#7d7d7d" stroke-width="1.51"/>
    <path d="M1445,-356L-277,-335L680,-341Z" fill="#969696" stroke="#969696" stroke-width="1.51"/>
    <path d="M2341,-154L2321,-311L2088,-299Z" fill="#686868" stroke="#686868" stroke-width="1.51"/>
    <path d="M2088,-299L2321,-311L1445,-356Z" fill="#767676" stroke="#767676" stroke-width="1.51"/>
    <path d="M-346,2111L-261,2341L-96,2268Z" fill="#6a6a6a" stroke="#6a6a6a" stroke-width="1.51"/>
    <path d="M-96,2268L-261,2341L150,2357Z" fill="#6c6c6c" stroke="#6c6c6c" stroke-width="1.51"/>
    <path d="M2099,2251L2361,2266L2147,2167Z" fill="#676767" stroke="#676767" stroke-width="1.51"/>
    <path d="M2235,2114L2361,2266L2237,1964Z" fill="#6a6a6a" stroke="#6a6a6a" stroke-width="1.51"/>
    <path d="M2315,1720L2361,2266L2363,924Z" fill="#818181" stroke="#818181" stroke-width="1.51"/>
    <path d="M1911,2305L2361,2266L2099,2251Z" fill="#696969" stroke="#696969" stroke-width="1.51"/>
    <path d="M1762,2334L2361,2266L1911,2305Z" fill="#6e6e6e" stroke="#6e6e6e" stroke-width="1.51"/>
  </g>
</svg>